<?xml version="1.0" encoding="UTF-8"?>
<svg id="Layer_1" data-name="Layer 1" xmlns="http://www.w3.org/2000/svg" viewBox="0 0 2296.94 1503.3">
  <defs>
    <style>
      .cls-1 {
        fill: gray;
      }
    </style>
  </defs>
  <path class="cls-1" d="m515.38,453.4c.29-.84.55-1.68.81-2.53.58.14,1.15.27,1.73.4,9.3,1.97,16.79.74,19.28-3.52,2.38-4.1-.04-10.81-5.92-17.62-.57-.67-1.18-1.33-1.79-1.96.41-.42.82-.86,1.21-1.29,6.35-7.08,9.04-14.19,6.57-18.47-2.36-4.1-9.4-5.36-18.22-3.68-.88.17-1.74.35-2.61.57-.28-1-.58-1.99-.91-2.91-2.85-8.36-7.38-14.36-12.1-14.39s-9.8,6.33-12.81,14.99c-.24.7-.48,1.4-.68,2.12-.94-.24-1.86-.45-2.81-.64-8.66-1.68-15.54-.43-17.92,3.65-2.46,4.21,0,11.31,6.02,18.25.48.55.98,1.1,1.51,1.65-.68.68-1.32,1.4-1.95,2.12-5.78,6.66-8.14,13.26-5.8,17.35,2.42,4.23,9.8,5.64,18.81,3.9.69-.14,1.39-.29,2.11-.46.14.5.29.99.45,1.47,2.94,9.03,7.74,15.58,12.69,15.61s9.36-6.11,12.32-14.6h0Zm13.37-21.08c5.03,5.84,6.99,11.27,5.56,13.73-1.53,2.63-7.66,3.62-15.7,1.93-.53-.11-1.05-.22-1.56-.37.8-3.46,1.38-6.98,1.71-10.51,2.92-2.02,5.71-4.22,8.33-6.62.58.61,1.12,1.21,1.66,1.84Zm-33.54-18.24c-1.36.79-2.73,1.6-4.06,2.45.28-2.44.68-4.86,1.21-7.24,2.25.7,4.57,1.57,6.94,2.58-1.38.71-2.74,1.44-4.09,2.21h0Zm18.82-4.64c.49,2.25.88,4.64,1.18,7.13-1.29-.83-2.62-1.65-3.96-2.42-1.32-.77-2.68-1.53-4.05-2.24,2.33-.97,4.62-1.79,6.82-2.47h0Zm-10.79,4.23c2.15,1.04,4.26,2.18,6.33,3.37s4.08,2.49,6.06,3.84c.16,2.34.24,4.74.23,7.17s-.12,4.84-.3,7.17c-1.97,1.32-4,2.57-6.06,3.77s-4.18,2.31-6.33,3.36c-2.15-1.06-4.27-2.19-6.36-3.41-2.07-1.2-4.08-2.47-6.08-3.81-.16-2.33-.23-4.75-.22-7.2s.1-4.83.25-7.12c1.99-1.35,4.03-2.62,6.11-3.81s4.2-2.29,6.36-3.33h0Zm-8.13,28.18c1.37.8,2.76,1.56,4.16,2.3-2.27.99-4.57,1.85-6.93,2.61-.54-2.42-.95-4.88-1.22-7.35,1.31.85,2.65,1.65,3.99,2.44h0Zm11.94,2.31c1.38-.73,2.76-1.47,4.1-2.25,1.33-.76,2.65-1.55,3.95-2.37-.32,2.51-.76,4.92-1.28,7.17-2.31-.73-4.55-1.58-6.77-2.55Zm17.65-16.02c-1.79,1.63-3.67,3.17-5.62,4.6.16-3.09.17-6.2.04-9.3,2.01,1.54,3.88,3.13,5.57,4.7Zm9.66-18.08c1.52,2.63-.7,8.45-6.16,14.56-.35.39-.72.78-1.1,1.18-2.6-2.43-5.37-4.68-8.26-6.74-.3-3.53-.83-7.03-1.57-10.51.8-.2,1.61-.37,2.42-.54,7.57-1.43,13.27-.44,14.68,2.04h0Zm-41.17-4.02c.19-.66.4-1.29.62-1.93,1.06-3.32,2.74-7.1,4.92-9.82,1.1-1.57,2.79-2.63,4.69-2.92,2.86.01,6.49,4.97,8.94,12.1.31.89.59,1.8.85,2.71-3.4,1.05-6.73,2.31-9.96,3.78-3.26-1.52-6.63-2.83-10.06-3.92Zm-15.4,18.14c-2.35-2.59-4.21-5.58-5.47-8.84-.82-1.74-.89-3.74-.18-5.52,1.45-2.48,6.97-3.48,14.38-2.04.87.18,1.75.37,2.61.59-.77,3.5-1.3,7.02-1.58,10.6-2.93,2.05-5.74,4.3-8.38,6.71-.48-.5-.95-1-1.38-1.51h0Zm3.78,3.85c1.73-1.59,3.64-3.17,5.69-4.71-.07,1.5-.11,3.05-.12,4.61s.02,3.19.09,4.75c-1.98-1.45-3.86-3-5.67-4.65Zm-4.78,20.4c-1.91-.15-3.68-1.1-4.88-2.6-1.43-2.49.47-7.78,5.41-13.47.57-.65,1.18-1.31,1.81-1.98,2.63,2.4,5.42,4.62,8.34,6.63.28,3.58.81,7.14,1.59,10.66-.64.15-1.28.29-1.91.41-3.38.75-6.89.86-10.36.34h0Zm16.78,2.92c-.14-.44-.28-.88-.4-1.33,3.41-1.08,6.75-2.41,9.99-3.94,3.18,1.52,6.46,2.8,9.81,3.87-.24.81-.49,1.59-.75,2.34-2.53,7.27-6.28,12.36-9.12,12.35-3.06-.01-6.99-5.49-9.53-13.29Zm2.45-23.38c-.02,3.95,3.17,7.17,7.12,7.19s7.17-3.17,7.19-7.12-3.17-7.17-7.12-7.19-7.17,3.17-7.19,7.12h0Z"/>
  <g>
    <path class="cls-1" d="m391.85,1002.86l39.69-8.35,1.55,7.36-15.76,3.31,8.12,38.59-7.88,1.66-8.12-38.59-16.05,3.38-1.55-7.36Zm-65.48,13.77l1.55,7.36-31.87,6.7,2.49,11.82,25.67-5.4,1.54,7.3-25.67,5.4,2.56,12.17,31.87-6.7,1.54,7.3-39.69,8.35-9.66-45.95,39.81-8.37-.12.02Zm19.87-4.18l-10.31,2.17,46.64,38.23,10.37-2.18-23.38-19.1,13.72-26.84-10.37,2.18-9.84,19.37-16.81-13.77v-.06Zm17.5,30.62l-6.56-5.28-11.6,22.83,10.31-2.17,7.84-15.38Z"/>
    <path class="cls-1" d="m296.64,1070.86l-46.75-38.15-9.85,2.07,9.66,45.95,7.88-1.66-7.59-36.1,36.68,29.98,9.97-2.1Zm146.31-31.01c-.58.12-1.09-.01-1.57-.27s-.83-.79-.95-1.37-.05-1.08.27-1.57.81-.77,1.38-.9,1.08-.05,1.57.27c.83.49,1.2,1.51.87,2.42-.24.69-.81,1.22-1.52,1.41h-.06Zm9.36-22.23l3.48-.73,2.84,13.5c.26,1.22.26,2.37-.08,3.35-.34.98-.96,1.85-1.78,2.49-.83.66-1.87,1.18-3.14,1.45-1.16.24-2.19.22-3.19.07s-1.84-.7-2.53-1.4c-.68-.64-1.18-1.57-1.42-2.73l3.48-.73c.16.45.37.89.67,1.19s.73.57,1.11.67c.45.15.93.11,1.45,0,.58-.12,1.02-.34,1.32-.64.36-.33.6-.76.71-1.24.08-.5.07-1.1-.08-1.8l-2.82-13.38v-.06Zm19,1.51c-.24-.77-.81-1.38-1.56-1.67-.84-.3-1.76-.34-2.63-.11-.75.16-1.37.41-1.85.69-.47.34-.81.77-.96,1.17-.4.77-.27,1.71.31,2.35.23.25.52.44.9.54l1.16.36,1.22.05,1.95.07c.79.02,1.53.1,2.29.24.72.12,1.42.34,2.07.65,1.33.68,2.26,1.94,2.53,3.4.24,1.16.16,2.2-.25,3.14-.45,1.04-1.18,1.93-2.12,2.56-.95.68-2.23,1.19-3.79,1.52s-2.89.37-4.09.13c-1.26-.22-2.21-.74-3.03-1.48-.85-.82-1.43-1.88-1.67-3.04l3.48-.73c.3,1.22,1.34,2.12,2.59,2.24.63.11,1.35.08,2.04-.07.75-.16,1.42-.42,1.95-.77s.92-.8,1.18-1.28c.22-.46.28-.99.17-1.49s-.31-.9-.67-1.19c-.44-.24-.91-.42-1.39-.56l-1.98-.19-2.32-.12c-1.71-.06-3.1-.38-4.21-1.05-1.11-.64-1.88-1.74-2.09-3.01-.23-1.05-.1-2.14.38-3.1.43-1.03,1.15-1.91,2.07-2.55,1.06-.71,2.17-1.18,3.56-1.48s2.6-.3,3.74-.06c1.14.24,2.1.77,2.91,1.45.75.69,1.23,1.56,1.48,2.71l-3.36.71v-.06Z"/>
  </g>
  <path class="cls-1" d="m110.23,172.11c3.89-15.56,13.61-23.33,29.17-23.33,23.33,0,26.26,17.5,37.92,20.42,7.78,1.95,14.58-.98,20.42-8.75-3.88,15.55-13.61,23.33-29.17,23.33-23.33,0-26.25-17.5-37.92-20.42-7.78-1.95-14.59.97-20.43,8.75h0Zm-29.18,35c3.89-15.55,13.61-23.33,29.17-23.33,23.34,0,26.25,17.5,37.93,20.42,7.77,1.95,14.58-.97,20.42-8.75-3.89,15.56-13.61,23.33-29.17,23.33-23.34,0-26.26-17.5-37.93-20.42-7.77-1.95-14.58.98-20.42,8.75Z"/>
  <path class="cls-1" d="m427.69,286.3l-10.67,6.15,32.26,37.15-6.95,3.92-32.24-37.13-10.67,6.1,32.26,37.15-12.22,6.97-17.96-10.69-6.33-17.28,5.27-2.99-7.93-9.13-12.81,7.34,10.43,28.58,29.69,17.62,19.33-11.03,3.88-2.22,24.87-14.21s-40.21-46.31-40.21-46.31Z"/>
  <path class="cls-1" d="m468.35,729.63v70h71.98v-70h-71.98Zm39.17,54.59c0,6.81-4.11,9.92-10.11,9.92-5.41,0-8.55-2.72-10.15-6.02l5.51-3.23c1.06,1.83,2.02,3.38,4.35,3.38s3.63-.84,3.63-4.14v-22.36h6.76v22.45h0Zm16,9.92c-6.28,0-10.35-2.91-12.32-6.72l5.51-3.09c1.45,2.3,3.34,4,6.67,4,2.8,0,4.6-1.36,4.6-3.25,0-2.25-1.83-3.05-4.93-4.38l-1.69-.7c-4.88-2.02-8.11-4.56-8.11-9.92,0-4.94,3.87-8.69,9.9-8.69,4.31,0,7.39,1.45,9.61,5.27l-5.27,3.28c-1.16-2.02-2.41-2.81-4.35-2.81s-3.23,1.22-3.23,2.81c0,1.97,1.25,2.77,4.16,4l1.69.7c5.75,2.39,8.98,4.84,8.98,10.34,0,5.91-4.79,9.16-11.2,9.16h0Z"/>
  <path class="cls-1" d="m223.92,911c-1.2-4.83-3.48-8.47-8.34-8.47h-6.27v7.41c0,5.75-4.87,10.59-10.44,10.59h-16.69c-4.56,0-8.34,3.91-8.34,8.48v15.91c0,4.53,3.94,7.19,8.34,8.48,5.28,1.55,10.36,1.83,16.69,0,4.2-1.22,8.34-3.67,8.34-8.48v-6.36h-16.67v-2.12h25.03c4.86,0,6.66-3.39,8.34-8.47,1.75-5.23,1.67-10.27,0-16.97h0Zm-24,31.8c1.73,0,3.14,1.42,3.14,3.17s-1.41,3.19-3.14,3.19-3.14-1.44-3.14-3.19c.02-1.77,1.42-3.17,3.14-3.17Zm-18.5-24.36h16.69c4.64,0,8.34-3.83,8.34-8.48v-15.92c0-4.53-3.81-7.92-8.34-8.69-5.59-.92-11.67-.87-16.69.02-7.06,1.25-8.34,3.86-8.34,8.69v6.36h16.7v2.12h-22.97c-4.86,0-9.11,2.92-10.44,8.47-1.53,6.36-1.59,10.33,0,16.97,1.19,4.94,4.02,8.47,8.87,8.47h5.73v-7.62c0-5.52,4.77-10.37,10.44-10.37h0Zm-1.05-22.28c-1.73,0-3.14-1.42-3.14-3.17.02-1.77,1.41-3.19,3.14-3.19s3.14,1.44,3.14,3.19-1.41,3.17-3.14,3.17Z"/>
  <path class="cls-1" d="m691.36,819.95l-1.38-16.37-22.91-6.51-5.23,27.67-7.89-.78,5.49-29.04-7.46-2.2-7.22,38.21,23.37,2.2,4.98-26.33,9.69,2.74.69,8.92-3.9,8.05-6.44-.66-1.44,7.64,12.4,1.2,7.26-14.74m-61.36,19.79l11.46-60.6,60.87,17.17,2.18,26.14-11.57,23.54s-62.94-6.24-62.94-6.24Z"/>
  <path class="cls-1" d="m572.51,953.9c-.93,0-1.9.24-2.69.69l-25.66,14.83c-1.66.97-2.69,2.76-2.69,4.69v29.59c0,1.93,1.03,3.72,2.69,4.69l6.72,3.86c3.28,1.59,4.38,1.62,5.9,1.62,4.83,0,7.62-2.93,7.62-8.03v-29.21c0-.41-.34-.76-.76-.76h-3.21c-.45,0-.79.34-.79.76v29.21c0,2.28-2.34,4.52-6.1,2.62l-7.07-4.03c-.24-.17-.38-.45-.38-.72v-29.59c0-.31.14-.59.38-.72l25.66-14.79c.21-.14.55-.14.76,0l25.66,14.79c.24.14.38.41.38.72v29.59c0,.28-.14.55-.38.72l-25.66,14.79c-.21.14-.55.14-.79,0l-6.48-3.93c-.28-.1-.55-.14-.72-.03-1.83,1.03-2.17,1.24-3.86,1.76-.41.14-1.07.38.24,1.1l8.55,5.07c.83.48,1.72.72,2.69.72s1.86-.24,2.69-.72l25.66-14.79c1.66-.97,2.69-2.76,2.69-4.69v-29.59c0-1.93-1.03-3.72-2.69-4.69l-25.66-14.83c-.79-.45-1.72-.69-2.69-.69m6.9,21.21c-7.31,0-11.69,3.07-11.69,8.24,0,5.55,4.34,7.17,11.38,7.86,8.38.83,9.03,2.07,9.03,3.72,0,2.86-2.31,4.07-7.69,4.07-6.83,0-8.28-1.69-8.79-5.07-.07-.34-.38-.62-.76-.62h-3.31c-.41,0-.72.31-.72.76,0,4.28,2.34,9.45,13.59,9.45,8.1,0,12.76-3.21,12.76-8.79s-3.72-7-11.62-8.07c-7.97-1.03-8.76-1.59-8.76-3.45,0-1.55.69-3.62,6.59-3.62,5.17,0,7.21,1.14,8,4.69.07.34.38.59.72.59h3.34c.17,0,.38-.07.52-.24.14-.14.24-.34.17-.55-.48-6.14-4.55-8.97-12.76-8.97Z"/>
  <path class="cls-1" d="m117.4,667.99c-.67-.58-1.35-1.15-2.03-1.71.35-.48.69-.96,1.03-1.45,5.36-7.85,7.07-15.25,4.08-19.17-2.88-3.76-10.01-4.08-18.55-1.23-.84.27-1.68.58-2.49.91-.23-.54-.48-1.08-.73-1.61-4.13-8.56-9.68-13.76-14.58-13.11-4.69.62-8.53,6.65-10.34,15.45-.18.87-.34,1.74-.47,2.63-1.03-.13-2.06-.22-3.04-.27-8.81-.54-16.09,1.36-17.91,5.72s2.12,11.47,8.99,17.54c.56.49,1.12.97,1.7,1.44-.58.78-1.12,1.55-1.66,2.36-4.85,7.37-6.32,14.21-3.45,17.96,2.96,3.87,10.46,4.3,19.17,1.37.69-.24,1.39-.49,2.1-.77.38.88.79,1.75,1.22,2.61,3.96,7.88,9.16,12.57,13.83,11.97,4.83-.63,8.95-6.92,10.77-15.91.13-.69.26-1.4.38-2.13.52.06,1.02.1,1.53.15,9.47.72,17.36-1.23,19.26-5.8s-2.09-10.98-8.81-16.95h0Zm-14.4-20.38c7.31-2.43,13.08-2.18,14.81.08,1.85,2.42.43,8.46-4.19,15.25-.31.45-.6.88-.93,1.3-2.9-2.06-5.93-3.93-9.07-5.58-.76-3.46-1.73-6.88-2.95-10.22.78-.3,1.54-.58,2.33-.84Zm-29.63,24.07c.21,1.56.44,3.13.72,4.69-2.15-1.18-4.23-2.48-6.24-3.87,1.5-1.81,3.19-3.63,5.03-5.44.13,1.55.29,3.08.49,4.62h0Zm2.87-19.17c2.27.4,4.63.95,7.04,1.62-1.26.88-2.52,1.79-3.75,2.74-1.22.93-2.43,1.9-3.61,2.9-.01-2.53.1-4.95.31-7.25h0Zm-.19,11.58c1.78-1.59,3.63-3.11,5.53-4.57s3.85-2.83,5.86-4.14c2.23.74,4.47,1.58,6.72,2.52s4.43,1.95,6.52,3.01c.47,2.33.86,4.68,1.18,7.04s.54,4.75.7,7.13c-1.8,1.59-3.65,3.12-5.57,4.58-1.9,1.46-3.84,2.83-5.84,4.17-2.21-.74-4.48-1.6-6.74-2.54s-4.43-1.93-6.49-2.94c-.49-2.35-.89-4.72-1.2-7.1s-.52-4.75-.66-7.15h0Zm22.96,18.24c1.26-.96,2.49-1.96,3.71-2.97.05,2.48-.03,4.93-.23,7.4-2.45-.43-4.87-.98-7.26-1.67,1.28-.89,2.54-1.82,3.77-2.76h0Zm6.68-10.17c-.15-1.55-.31-3.11-.52-4.65-.2-1.52-.43-3.04-.69-4.55,2.2,1.26,4.26,2.57,6.14,3.91-1.55,1.86-3.2,3.61-4.93,5.29Zm-8.1-22.42c.83,2.28,1.53,4.6,2.12,6.94-2.8-1.32-5.67-2.52-8.58-3.58,2.19-1.27,4.37-2.39,6.46-3.36Zm-13.04-15.82c3.01-.4,7.55,3.86,11.12,11.24.23.47.44.96.67,1.47-3.24,1.48-6.37,3.18-9.38,5.08-3.38-1.07-6.82-1.91-10.32-2.54.12-.81.27-1.63.43-2.45,1.56-7.54,4.64-12.44,7.47-12.8h0Zm-19.39,36.54c-.53-.43-1.05-.86-1.55-1.31-2.67-2.25-5.52-5.23-7.21-8.29-1.04-1.62-1.37-3.58-.91-5.44,1.1-2.64,7.06-4.11,14.6-3.66.94.05,1.89.14,2.83.25-.32,3.54-.42,7.1-.29,10.64-2.64,2.44-5.14,5.05-7.46,7.81Zm10.92,21.14c-3.29,1.19-6.76,1.77-10.26,1.7-1.92.1-3.8-.6-5.17-1.94-1.74-2.28-.57-7.77,3.59-14.08.5-.74,1.01-1.48,1.54-2.19,2.94,2.04,6,3.87,9.2,5.5.78,3.49,1.79,6.94,3.02,10.3-.65.25-1.29.49-1.92.71h0Zm4.99-2.03c-.81-2.2-1.55-4.57-2.19-7.06,1.36.64,2.78,1.26,4.22,1.86s2.95,1.2,4.43,1.73c-2.09,1.28-4.25,2.43-6.46,3.47Zm17.04,12.19c-.86,1.71-2.41,2.99-4.26,3.52-2.85.37-7.01-3.4-10.4-10.13-.39-.77-.76-1.59-1.14-2.42,3.22-1.52,6.33-3.25,9.31-5.19,3.42,1.1,6.91,1.97,10.47,2.59-.1.65-.22,1.3-.34,1.92-.59,3.41-1.83,6.7-3.63,9.71h0Zm9.09-14.41c-.46-.04-.92-.08-1.38-.14.3-3.56.34-7.15.16-10.73,2.61-2.36,5.04-4.91,7.32-7.6.66.53,1.28,1.06,1.88,1.58,5.76,5.11,9.04,10.51,7.95,13.13-1.18,2.83-7.73,4.38-15.92,3.75Zm-20.68-11.17c3.65,1.52,7.84-.2,9.36-3.85s-.2-7.84-3.85-9.36-7.84.2-9.36,3.85.2,7.84,3.85,9.36h0Z"/>
  <g>
    <path class="cls-1" d="m737.76,660.77l39.85,7.57-1.4,7.39-15.82-3.01-7.36,38.74-7.91-1.5,7.36-38.74-16.11-3.06,1.4-7.39Zm-65.73-12.49l-1.4,7.39-31.99-6.08-2.26,11.87,25.77,4.9-1.39,7.33-25.77-4.9-2.32,12.22,31.99,6.08-1.39,7.33-39.85-7.57,8.77-46.13,39.96,7.6-.12-.02Zm19.95,3.79l-10.35-1.97,28.33,53.24,10.41,1.98-14.22-26.63,22.99-19.5-10.41-1.98-16.54,14.09-10.22-19.18v-.06Zm4.39,35.01l-4.02-7.39-19.49,16.61,10.35,1.97,13.15-11.18Z"/>
    <path class="cls-1" d="m623.71,686.88l-28.46-53.2-9.89-1.88-8.77,46.13,7.91,1.5,6.89-36.24,22.31,41.79,10.01,1.9Zm146.98,27.7c-.58-.11-1-.43-1.34-.86s-.46-1.05-.35-1.63.37-1.01.86-1.34,1.04-.4,1.62-.29,1.01.37,1.34.86c.58.77.53,1.85-.13,2.57-.49.55-1.22.82-1.94.72h-.06Zm17.2-16.93l3.49.66-2.58,13.55c-.23,1.22-.67,2.28-1.36,3.06-.69.78-1.59,1.34-2.6,1.62-1.02.29-2.18.37-3.46.13-1.16-.22-2.11-.64-2.97-1.17s-1.43-1.36-1.8-2.27c-.38-.86-.48-1.9-.26-3.06l3.49.66c-.03.48,0,.96.16,1.36s.45.81.76,1.05c.36.31.82.46,1.34.56.58.11,1.07.08,1.46-.08.46-.17.85-.47,1.13-.87.26-.43.49-.99.62-1.69l2.55-13.44v-.06Zm16.98,8.71c.08-.8-.22-1.59-.8-2.14-.66-.6-1.49-.99-2.38-1.12-.76-.14-1.42-.15-1.97-.07-.57.13-1.04.4-1.34.71-.67.56-.91,1.48-.62,2.29.12.32.31.6.62.84l.94.78,1.11.51,1.77.82c.72.32,1.38.68,2.02,1.11.62.39,1.18.86,1.66,1.4.96,1.14,1.34,2.66,1.03,4.11-.22,1.16-.7,2.1-1.44,2.8-.81.79-1.84,1.33-2.95,1.55-1.14.27-2.52.24-4.09-.05s-2.81-.77-3.82-1.45c-1.07-.69-1.76-1.54-2.23-2.53-.46-1.09-.59-2.29-.37-3.45l3.49.66c-.19,1.24.42,2.47,1.53,3.06.54.34,1.21.59,1.91.72.76.14,1.48.16,2.1.04s1.16-.38,1.58-.72c.38-.35.64-.8.73-1.31s.06-.95-.16-1.36c-.31-.39-.67-.74-1.07-1.05l-1.75-.94-2.1-1c-1.55-.72-2.72-1.54-3.49-2.59-.78-1.02-1.06-2.33-.77-3.58.19-1.06.73-2.01,1.54-2.72.8-.78,1.8-1.32,2.89-1.56,1.25-.24,2.46-.26,3.86,0s2.52.72,3.47,1.38c.96.66,1.64,1.52,2.13,2.45.43.92.54,1.91.32,3.07l-3.37-.64v-.06Z"/>
  </g>
  <path class="cls-1" d="m428.58,868.15c9.58-12.86,21.55-16.3,35.9-10.31,21.54,8.98,17.5,26.26,27.14,33.44,6.43,4.79,13.84,4.71,22.21-.22-9.57,12.86-21.54,16.3-35.9,10.31-21.54-8.98-17.49-26.26-27.14-33.44-6.43-4.8-13.84-4.72-22.22.21h0Zm-40.4,21.07c9.57-12.86,21.55-16.3,35.9-10.31,21.54,8.98,17.49,26.26,27.15,33.44,6.42,4.79,13.83,4.72,22.21-.22-9.58,12.86-21.55,16.3-35.9,10.31-21.54-8.98-17.5-26.26-27.15-33.44-6.43-4.79-13.84-4.71-22.21.22Z"/>
  <path class="cls-1" d="m30.87,1011.04l-6.83,10.26,45.41,18.94-4.48,6.6-45.38-18.93-6.85,10.21,45.41,18.94-7.85,11.67-20.84-1.59-13.35-12.67,3.39-5.02-11.16-4.66-8.22,12.27,22.05,20.97,34.42,2.59,12.41-18.48,2.49-3.71,15.96-23.79s-56.61-23.61-56.61-23.61Z"/>
  <path class="cls-1" d="m630.71,252.36l-26.95,64.61,66.43,27.71,26.95-64.61-66.43-27.71Zm15.14,65.47c-2.62,6.29-7.62,7.57-13.15,5.27-5-2.08-6.84-5.8-7.06-9.46l6.33-.86c.28,2.1.57,3.89,2.72,4.79s3.68.62,4.95-2.42l8.61-20.64,6.24,2.6-8.64,20.72h0Zm10.95,15.32c-5.8-2.42-8.43-6.67-8.79-10.94l6.28-.73c.45,2.68,1.54,4.98,4.61,6.26,2.58,1.08,4.76.51,5.49-1.23.87-2.08-.52-3.52-2.87-5.94l-1.29-1.3c-3.73-3.74-5.73-7.33-3.67-12.28,1.9-4.56,6.92-6.53,12.48-4.21,3.97,1.66,6.26,4.19,6.84,8.56l-6.13,1c-.29-2.31-1.14-3.52-2.94-4.27s-3.45-.12-4.06,1.35c-.76,1.82.09,3.03,2.3,5.29l1.29,1.3c4.39,4.42,6.42,7.93,4.31,13-2.27,5.45-7.94,6.61-13.86,4.14h0Z"/>
  <path class="cls-1" d="m1000.53,1013.22c-4.72-1.58-9.02-1.61-11.62,2.49l-3.36,5.29,6.25,3.98c4.85,3.09,6.32,9.8,3.33,14.49l-8.96,14.08c-2.45,3.85-1.18,9.14,2.68,11.59l13.42,8.54c3.82,2.43,8.18.54,11.64-2.48,4.14-3.62,7.1-7.76,8.96-14.08,1.23-4.2,1.38-9.01-2.68-11.59l-5.36-3.41-8.95,14.06-1.79-1.14,13.44-21.12c2.61-4.1.71-7.44-2.66-11.59-3.48-4.29-7.76-6.92-14.31-9.11h0Zm13.94,37.32c.93-1.46,2.89-1.89,4.36-.95s1.93,2.9,1,4.36-2.9,1.88-4.38.94c-1.48-.96-1.91-2.9-.99-4.35Zm-30.48,2.53l8.96-14.08c2.49-3.91,1.25-9.09-2.68-11.59l-13.43-8.55c-3.82-2.43-8.73-1.04-11.81,2.37-3.78,4.22-7,9.38-8.95,14.09-2.74,6.63-1.22,9.11,2.85,11.7l5.36,3.41,8.97-14.09,1.79,1.14-12.33,19.38c-2.61,4.1-2.43,9.25,1.54,13.35,4.54,4.71,7.86,6.89,14.31,9.11,4.8,1.65,9.3,1.16,11.91-2.94l3.08-4.84-6.43-4.09c-4.65-2.96-6.19-9.59-3.15-14.38h0Zm-19.36-11.08c-.93,1.46-2.89,1.89-4.36.95-1.48-.96-1.93-2.9-1-4.36s2.9-1.88,4.38-.94,1.92,2.89.99,4.35Z"/>
  <path class="cls-1" d="m1007.28,236.84l16.3,2.04,11.11-21.07-25.99-10.84,2.39-7.56,27.28,11.38,3.7-6.84-35.89-14.97-6.99,22.41,24.73,10.31-4.69,8.92-8.87-1.17-7.07-5.48,1.98-6.17-7.18-2.99-3.73,11.88,12.92,10.15m-6.67-64.13l56.93,23.74-29.38,56-26.02-3.27-20.64-16.19s19.12-60.29,19.12-60.29Z"/>
  <path class="cls-1" d="m312.5,781.08c-.86-.36-1.84-.51-2.75-.4l-29.39,3.81c-1.9.25-3.54,1.51-4.29,3.29l-11.39,27.31c-.74,1.78-.48,3.84.68,5.36l4.72,6.15c2.41,2.72,3.42,3.18,4.82,3.77,4.46,1.86,8.16.23,10.13-4.48l11.24-26.96c.16-.38-.03-.83-.41-.99l-2.96-1.23c-.41-.17-.86.01-1.02.39l-11.24,26.96c-.88,2.1-3.9,3.27-6.64.07l-4.97-6.44c-.16-.25-.18-.56-.07-.81l11.39-27.31c.12-.29.35-.49.63-.52l29.37-3.78c.24-.05.56.09.7.29l17.98,23.53c.17.22.19.53.07.81l-11.39,27.31c-.11.25-.34.46-.63.52l-29.37,3.78c-.24.05-.56-.09-.73-.31l-4.47-6.12c-.21-.2-.46-.34-.66-.31-2.08.25-2.48.31-4.24.14-.44-.03-1.13-.06-.2,1.11l5.94,7.97c.58.76,1.31,1.33,2.2,1.7s1.81.49,2.76.37l29.37-3.78c1.9-.25,3.54-1.51,4.29-3.29l11.39-27.31c.74-1.78.48-3.84-.68-5.36l-17.97-23.56c-.56-.72-1.33-1.3-2.22-1.67m-1.8,22.23c-6.75-2.81-11.97-1.67-13.96,3.11-2.14,5.12,1.25,8.29,7.48,11.64,7.42,3.99,7.54,5.39,6.9,6.91-1.1,2.64-3.7,2.87-8.66.8-6.3-2.63-6.99-4.75-6.16-8.06.07-.34-.11-.72-.46-.86l-3.06-1.27c-.38-.16-.79,0-.96.42-1.65,3.95-1.47,9.62,8.9,13.95,7.48,3.12,13.01,1.95,15.16-3.2,2.14-5.12-.74-7.89-7.62-11.92-6.95-4.02-7.47-4.84-6.76-6.55.6-1.43,2.03-3.08,7.47-.81,4.77,1.99,6.21,3.82,5.58,7.41-.07.34.12.69.44.82l3.09,1.29c.16.07.38.08.57-.02.18-.07.36-.23.37-.44,1.92-5.85-.75-10.03-8.32-13.19Z"/>
  <path class="cls-1" d="m221.98,211.75c0-7.23,5.86-13.1,13.1-13.1h22.47c7.23,0,13.1,5.86,13.1,13.1,0,4.58-2.35,8.61-5.91,10.95,3.56,2.34,5.91,6.37,5.91,10.95,0,7.23-5.86,13.1-13.1,13.1h-.28c-3.39,0-6.48-1.29-8.81-3.4v12.07c0,7.33-6.02,13.24-13.31,13.24s-13.17-5.85-13.17-13.1c0-4.58,2.35-8.61,5.91-10.95-3.56-2.34-5.91-6.37-5.91-10.95s2.35-8.61,5.91-10.95c-3.56-2.34-5.91-6.37-5.91-10.95Zm22.19,13.1h-9.09c-4.86,0-8.81,3.94-8.81,8.81s3.91,8.78,8.75,8.81c.02,0,.04,0,.06,0h9.09v-17.61Zm4.29,8.81c0,4.86,3.94,8.81,8.81,8.81h.28c4.86,0,8.81-3.94,8.81-8.81s-3.94-8.81-8.81-8.81h-.28c-4.86,0-8.81,3.94-8.81,8.81Zm-13.38,13.1s-.04,0-.06,0c-4.84.03-8.75,3.96-8.75,8.81s4,8.81,8.88,8.81,9.02-4.02,9.02-8.95v-8.66h-9.09Zm0-43.81c-4.86,0-8.81,3.94-8.81,8.81s3.94,8.81,8.81,8.81h9.09v-17.61h-9.09Zm13.38,17.61h9.09c4.86,0,8.81-3.94,8.81-8.81s-3.94-8.81-8.81-8.81h-9.09v17.61Z"/>
  <path class="cls-1" d="m843.7.9c6.86-2.29,14.28,1.42,16.56,8.29l7.1,21.32c2.29,6.86-1.42,14.28-8.29,16.56-4.35,1.45-8.91.49-12.26-2.15-1.1,4.12-4.18,7.62-8.52,9.07-6.86,2.29-14.28-1.42-16.56-8.29l-.09-.27c-1.07-3.22-.83-6.56.45-9.43l-11.45,3.81c-6.95,2.32-14.46-1.52-16.77-8.44-2.28-6.85,1.38-14.34,8.26-16.63,4.35-1.45,8.91-.49,12.26,2.15,1.1-4.12,4.18-7.62,8.52-9.07s8.91-.49,12.26,2.15c1.1-4.12,4.18-7.62,8.52-9.07Zm-5.41,25.19l-2.87-8.63c-1.54-4.61-6.52-7.11-11.14-5.57s-7.09,6.49-5.59,11.09c0,.02.01.04.02.05l2.87,8.63,16.71-5.57Zm-7,6.85c-4.61,1.54-7.11,6.52-5.57,11.14l.09.27c1.54,4.61,6.52,7.11,11.14,5.57s7.11-6.52,5.57-11.14l-.09-.27c-1.54-4.61-6.52-7.11-11.14-5.57Zm-16.65-8.56s-.01-.04-.02-.05c-1.56-4.58-6.52-7.05-11.12-5.52s-7.09,6.57-5.55,11.21,6.67,7.29,11.34,5.73l8.22-2.74-2.87-8.63Zm41.56-13.84c-1.54-4.61-6.52-7.11-11.14-5.57s-7.11,6.52-5.57,11.14l2.87,8.63,16.71-5.57-2.87-8.63Zm-12.48,18.26l2.87,8.63c1.54,4.61,6.52,7.11,11.14,5.57,4.61-1.54,7.11-6.52,5.57-11.14l-2.87-8.63-16.71,5.57Z"/>
  <path class="cls-1" d="m506.45,219.75l20.25-20.28,5.92,5.95c-.84,2.98.53,6.23,3.26,7.81v19.4c-2.1,1.19-3.5,3.47-3.5,6.06,0,3.87,3.14,7.01,7.01,7.01s7.01-3.14,7.01-7.01c0-2.59-1.4-4.87-3.5-6.06v-17.02l7.25,7.32c-.25.53-.25,1.12-.25,1.75,0,3.87,3.14,7.01,7.01,7.01s7.01-3.14,7.01-7.01-3.14-7.01-7.01-7.01c-.63,0-1.23,0-1.75.25l-9-9c.9-3.36-.82-6.86-4.03-8.2-1.51-.56-3.08-.7-4.48-.32l-5.95-5.92,2.77-2.73c2.73-2.77,7.15-2.77,9.88,0l27.99,27.99c2.77,2.73,2.77,7.15,0,9.88l-27.99,27.99c-2.73,2.77-7.15,2.77-9.88,0l-27.99-27.99c-2.77-2.73-2.77-7.15,0-9.88Z"/>
  <path class="cls-1" d="m324.15,313.93l-.18,28.66-8.4-.08c-1.49-2.71-4.75-4.07-7.8-3.27l-13.62-13.82c.66-2.32.06-4.93-1.76-6.77-2.72-2.75-7.15-2.79-9.91-.07s-2.79,7.15-.07,9.91c1.82,1.85,4.42,2.48,6.75,1.86l11.95,12.12-10.3-.12c-.19-.55-.61-.97-1.06-1.42-2.72-2.75-7.15-2.79-9.91-.07s-2.79,7.15-.07,9.91,7.15,2.79,9.91.07c.45-.44.87-.86,1.07-1.4l12.73.09c1.72,3.02,5.4,4.31,8.62,3.01,1.47-.66,2.69-1.67,3.41-2.92l8.4.03-.05,3.89c0,3.89-3.15,6.99-7.03,6.93l-39.58-.28c-3.89,0-6.99-3.15-6.93-7.03l.28-39.58c0-3.89,3.15-6.99,7.03-6.93l39.58.28c3.89,0,6.99,3.15,6.93,7.03Z"/>
  <path class="cls-1" d="m989.45,637.71c.53.71,1.08,1.41,1.63,2.1-.44.4-.88.8-1.31,1.2-6.88,6.56-10.1,13.44-7.99,17.9,2.04,4.28,8.94,6.07,17.88,5.08.88-.09,1.77-.22,2.63-.37.12.57.24,1.16.38,1.73,2.25,9.24,6.6,15.47,11.52,15.86,4.72.38,9.73-4.72,13.33-12.95.36-.82.69-1.63,1.01-2.47.98.34,1.97.64,2.91.9,8.51,2.37,16.02,2.02,18.71-1.86s.31-11.66-5.13-19.03c-.44-.59-.89-1.19-1.37-1.76.73-.64,1.42-1.28,2.11-1.96,6.28-6.2,9.14-12.58,7.12-16.85-2.08-4.4-9.34-6.39-18.46-5.34-.73.09-1.46.19-2.21.31-.18-.94-.41-1.88-.64-2.8-2.23-8.53-6.34-14.21-11.03-14.59-4.86-.4-10.19,4.9-13.85,13.31-.28.65-.55,1.31-.81,2-.49-.17-.98-.32-1.47-.46-9.11-2.68-17.23-2.42-20.05,1.65s-.25,11.17,5.08,18.41h0Zm9.84,22.94c-7.66.86-13.25-.6-14.47-3.17-1.31-2.75,1.34-8.36,7.28-14.04.39-.37.78-.74,1.18-1.08,2.41,2.62,4.98,5.08,7.7,7.35.02,3.55.26,7.09.75,10.61-.83.13-1.63.24-2.45.33Zm34-17.36c.12-1.57.22-3.15.27-4.73,1.85,1.61,3.62,3.3,5.29,5.09-1.85,1.46-3.88,2.88-6.05,4.27.19-1.54.36-3.08.48-4.62h0Zm-6.8,18.15c-2.13-.87-4.33-1.9-6.55-3.05,1.42-.6,2.84-1.23,4.24-1.89,1.39-.66,2.78-1.35,4.14-2.08-.52,2.47-1.13,4.82-1.82,7.02h0Zm2.6-11.29c-2.07,1.19-4.2,2.28-6.36,3.31-2.16,1.03-4.36,1.96-6.59,2.83-2.03-1.19-4.04-2.48-6.05-3.86s-3.93-2.83-5.75-4.3c.03-2.37.13-4.75.32-7.13s.46-4.76.8-7.12c2.09-1.18,4.22-2.28,6.4-3.32,2.16-1.03,4.35-1.97,6.58-2.86,2.01,1.18,4.05,2.5,6.07,3.89s3.93,2.81,5.73,4.23c-.01,2.41-.11,4.8-.31,7.2s-.48,4.76-.85,7.13h0Zm-18.65-22.63c-1.44.68-2.85,1.39-4.25,2.13.47-2.43,1.05-4.82,1.77-7.19,2.3.93,4.56,1.98,6.75,3.15-1.44.6-2.86,1.25-4.27,1.91h0Zm-8.65,8.55c-.18,1.55-.34,3.11-.47,4.66-.13,1.53-.22,3.06-.27,4.6-1.89-1.69-3.63-3.4-5.19-5.11,1.91-1.49,3.88-2.86,5.93-4.14Zm3.25,23.62c-.34-2.4-.54-4.82-.62-7.23,2.46,1.88,5.02,3.65,7.64,5.29-2.41.79-4.77,1.43-7.02,1.94Zm9.45,18.19c-3.03-.23-6.58-5.35-8.53-13.31-.13-.5-.23-1.04-.35-1.58,3.48-.77,6.9-1.78,10.23-3.01,3.08,1.75,6.27,3.29,9.56,4.64-.29.77-.61,1.54-.93,2.3-3.1,7.05-7.14,11.19-9.98,10.96h0Zm26.58-31.69c.43.53.84,1.06,1.25,1.6,2.14,2.75,4.31,6.27,5.32,9.61.68,1.8.59,3.79-.24,5.51-1.63,2.35-7.77,2.55-15.04.54-.91-.25-1.82-.53-2.71-.83,1.06-3.39,1.9-6.86,2.51-10.35,3.09-1.83,6.08-3.87,8.92-6.08Zm-6.27-22.96c3.46-.47,6.98-.32,10.38.48,1.9.31,3.59,1.38,4.65,2.97,1.22,2.6-1.07,7.72-6.44,13.02-.64.62-1.29,1.23-1.96,1.82-2.45-2.61-5.06-5.04-7.85-7.3-.03-3.58-.31-7.17-.8-10.7.69-.11,1.36-.21,2.02-.29h0Zm-5.31.94c.33,2.32.56,4.79.67,7.36-1.2-.9-2.45-1.81-3.74-2.7s-2.64-1.79-3.97-2.61c2.31-.81,4.66-1.49,7.04-2.05Zm-14.13-15.47c1.2-1.49,2.98-2.42,4.9-2.55,2.86.23,6.15,4.79,8.06,12.08.22.84.41,1.71.61,2.61-3.47.81-6.87,1.86-10.19,3.13-3.11-1.79-6.35-3.37-9.7-4.71.24-.62.48-1.22.74-1.81,1.29-3.21,3.19-6.17,5.57-8.74h0Zm-11.9,12.19c.44.13.88.27,1.32.42-1.04,3.42-1.83,6.92-2.4,10.46-3.05,1.77-5.95,3.75-8.74,5.9-.53-.66-1.03-1.31-1.51-1.94-4.56-6.2-6.65-12.16-5.03-14.5,1.74-2.52,8.48-2.67,16.35-.35Zm17.9,15.24c-3.25-2.25-7.71-1.44-9.96,1.81-2.25,3.25-1.44,7.71,1.81,9.96,3.25,2.25,7.71,1.44,9.96-1.81s1.44-7.71-1.81-9.96h0Z"/>
  <g>
    <path class="cls-1" d="m134.72,524.98l-15.54,37.46-6.95-2.88,6.17-14.88-36.42-15.11,3.09-7.44,36.42,15.11,6.28-15.15,6.95,2.88Zm25.64-61.8l-6.95-2.88,12.48-30.08-11.16-4.63-10.05,24.23-6.89-2.86,10.05-24.23-11.49-4.76-12.48,30.08-6.89-2.86,15.54-37.46,43.37,17.99-15.59,37.57.05-.11Zm-7.78,18.76l4.04-9.73-57.9,16.88-4.06,9.79,28.97-8.49,14.4,26.49,4.06-9.79-10.42-19.07,20.86-6.09.05.02Zm-35.16-2.86l8.06-2.43-12.28-22.47-4.04,9.73,8.26,15.16Z"/>
    <path class="cls-1" d="m132.42,408l57.89-17.01,3.86-9.3-43.37-17.99-3.09,7.44,34.07,14.14-45.46,13.32-3.9,9.41Zm-57.09,138.24c.23-.55.63-.89,1.11-1.14s1.12-.24,1.67-.01.92.57,1.14,1.11.18,1.1-.04,1.65-.57.92-1.11,1.14c-.88.41-1.92.14-2.49-.65-.44-.59-.55-1.36-.3-2.05l.02-.05Zm13.06,20.29l-1.36,3.28-12.74-5.29c-1.15-.48-2.1-1.13-2.71-1.96-.62-.84-.99-1.83-1.05-2.87-.07-1.06.08-2.21.58-3.41.45-1.09,1.06-1.93,1.75-2.67s1.62-1.12,2.59-1.3c.92-.2,1.96-.09,3.05.37l-1.36,3.28c-.46-.13-.94-.2-1.36-.12s-.88.27-1.18.53c-.38.29-.61.71-.82,1.2-.23.55-.3,1.03-.22,1.45.07.48.29.93.62,1.28.37.35.87.68,1.53.95l12.63,5.24.05.02Zm-11.99,14.83c.77.24,1.6.11,2.26-.35.73-.53,1.28-1.26,1.58-2.1.29-.71.44-1.36.48-1.92-.01-.58-.18-1.1-.42-1.46-.41-.77-1.26-1.19-2.12-1.07-.34.05-.65.18-.95.44l-.96.76-.73.98-1.16,1.57c-.46.64-.95,1.21-1.5,1.75-.5.53-1.08.98-1.71,1.34-1.31.71-2.87.77-4.24.17-1.09-.45-1.91-1.11-2.45-1.98-.61-.96-.92-2.07-.92-3.2-.03-1.17.27-2.51.89-3.99s1.33-2.59,2.2-3.45c.89-.91,1.87-1.41,2.94-1.67,1.16-.23,2.36-.11,3.45.34l-1.36,3.28c-1.18-.44-2.5-.09-3.31.87-.45.46-.83,1.07-1.1,1.72-.29.71-.46,1.41-.47,2.05s.14,1.21.39,1.7c.26.44.66.79,1.13.98s.92.25,1.36.12c.44-.23.86-.51,1.24-.83l1.27-1.52,1.41-1.85c1.02-1.37,2.06-2.35,3.25-2.88,1.16-.56,2.5-.56,3.66-.02.99.4,1.82,1.13,2.35,2.06.6.94.93,2.03.94,3.15-.02,1.28-.25,2.46-.8,3.77s-1.22,2.32-2.06,3.12c-.85.8-1.82,1.3-2.84,1.58-.99.23-1.98.14-3.07-.31l1.32-3.17.05.02Z"/>
  </g>
  <path class="cls-1" d="m964.8,844.09c-12.05,10.58-24.47,11.44-37.26,2.59-19.19-13.28-11.63-29.33-19.57-38.37-5.29-6.03-12.55-7.5-21.77-4.42,12.04-10.58,24.47-11.44,37.26-2.59,19.19,13.28,11.63,29.33,19.56,38.36,5.29,6.03,12.55,7.5,21.78,4.43h0Zm43.91-12.18c-12.05,10.58-24.47,11.44-37.26,2.59-19.19-13.28-11.63-29.33-19.57-38.37-5.28-6.03-12.54-7.5-21.77-4.42,12.05-10.58,24.47-11.44,37.26-2.59,19.19,13.28,11.63,29.33,19.57,38.37,5.29,6.02,12.55,7.5,21.77,4.42Z"/>
  <path class="cls-1" d="m740.48,1073.64l.96-12.28-48.88,5.62.69-7.95,48.85-5.62,1-12.25-48.88,5.62,1.16-14.02,18.96-8.78,17.83,4.55-.51,6.04,12.01-1.38,1.19-14.72-29.48-7.54-31.31,14.53-1.82,22.19-.36,4.45-2.33,28.55s60.93-7.01,60.93-7.01Z"/>
  <path class="cls-1" d="m876.87,1020.82l-57.75-39.56-40.68,59.39,57.75,39.56,40.68-59.39Zm-67.18,1.47c-5.62-3.85-5.86-9-2.47-13.94,3.06-4.47,7.07-5.52,10.7-4.98l-.45,6.37c-2.11-.16-3.93-.24-5.24,1.69s-1.36,3.47,1.36,5.34l18.45,12.64-3.82,5.58-18.52-12.69h0Zm-17.23,7.6c3.55-5.18,8.24-6.89,12.51-6.37l-.56,6.3c-2.71-.1-5.19.5-7.07,3.24-1.58,2.31-1.48,4.56.08,5.63,1.86,1.27,3.55.21,6.4-1.6l1.53-.99c4.42-2.89,8.35-4.12,12.77-1.09,4.07,2.79,4.98,8.1,1.57,13.07-2.43,3.55-5.38,5.28-9.77,4.95l.27-6.2c2.32.18,3.68-.4,4.78-2s.82-3.35-.5-4.25c-1.62-1.11-2.99-.53-5.65,1.17l-1.53.99c-5.22,3.39-9.07,4.67-13.61,1.56-4.87-3.34-4.85-9.12-1.23-14.41h0Z"/>
  <path class="cls-1" d="m298.91,520.43c4.66,1.74,8.96,1.91,11.7-2.1l3.54-5.17-6.11-4.19c-4.74-3.25-5.99-10.01-2.84-14.6l9.43-13.77c2.58-3.76,1.49-9.09-2.28-11.68l-13.12-8.99c-3.74-2.56-8.15-.81-11.71,2.09-4.26,3.48-7.36,7.51-9.43,13.77-1.37,4.16-1.69,8.96,2.28,11.68l5.25,3.59,9.42-13.75,1.75,1.2-14.14,20.65c-2.75,4.01-.96,7.41,2.27,11.67,3.33,4.4,7.52,7.18,14,9.59h0Zm-12.67-37.77c-.98,1.43-2.95,1.79-4.39.8s-1.84-2.96-.86-4.39,2.96-1.78,4.4-.79c1.45,1.01,1.81,2.97.84,4.38Zm30.55-1.5l-9.43,13.77c-2.62,3.83-1.56,9.05,2.28,11.68l13.14,9c3.74,2.56,8.69,1.33,11.88-1.97,3.92-4.09,7.32-9.13,9.42-13.78,2.96-6.53,1.53-9.06-2.45-11.79l-5.25-3.59-9.44,13.78-1.75-1.2,12.98-18.95c2.75-4.01,2.74-9.17-1.09-13.4-4.38-4.86-7.62-7.15-14-9.59-4.74-1.81-9.26-1.47-12,2.54l-3.24,4.73,6.29,4.31c4.55,3.12,5.87,9.79,2.66,14.47h0Zm18.97,11.73c.98-1.43,2.95-1.79,4.39-.8,1.45,1.01,1.84,2.96.86,4.39s-2.96,1.78-4.4.79-1.82-2.95-.84-4.38Z"/>
  <path class="cls-1" d="m22.36,927.6l14.28,8.11,18.32-15.23-19.87-19.95,5.1-6.07,20.86,20.94,6.03-4.91-27.44-27.55-15.02,18.04,18.91,18.98-7.74,6.45-7.75-4.47-4.44-7.76,4.19-4.94-5.49-5.51-7.99,9.55,8.06,14.32m18.35-61.81l43.53,43.7-48.56,40.52-22.8-12.97-12.88-22.85s40.71-48.4,40.71-48.4Z"/>
  <path class="cls-1" d="m61.6,338.1c.53-.77.87-1.7.95-2.61l2.26-29.55c.14-1.91-.76-3.78-2.35-4.87l-24.41-16.72c-1.59-1.09-3.66-1.25-5.39-.43l-6.99,3.37c-3.16,1.81-3.81,2.7-4.67,3.95-2.73,3.98-1.89,7.94,2.32,10.83l24.1,16.5c.34.23.82.14,1.05-.2l1.81-2.65c.25-.37.16-.85-.18-1.08l-24.1-16.5c-1.88-1.29-2.4-4.49,1.29-6.52l7.32-3.55c.28-.1.58-.06.81.1l24.41,16.72c.26.18.41.45.38.72l-2.29,29.53c0,.25-.2.53-.43.63l-26.7,12.81c-.25.12-.56.08-.81-.1l-24.41-16.72c-.23-.16-.38-.43-.38-.72l2.29-29.53c0-.25.2-.53.45-.65l6.91-3.13c.24-.17.43-.38.44-.58.18-2.09.2-2.49.73-4.18.12-.42.29-1.1-1.05-.42l-9.01,4.19c-.87.41-1.57,1.01-2.12,1.81s-.85,1.67-.92,2.63l-2.29,29.53c-.14,1.91.76,3.78,2.35,4.87l24.41,16.72c1.59,1.09,3.66,1.25,5.39.43l26.73-12.79c.82-.4,1.54-1.03,2.09-1.83m-21.39-6.29c4.13-6.03,4.07-11.38-.19-14.3-4.58-3.14-8.37-.47-12.92,4.95-5.42,6.45-6.81,6.28-8.18,5.35-2.36-1.62-2.05-4.21.99-8.64,3.86-5.63,6.07-5.87,9.15-4.39.32.14.73.04.94-.28l1.87-2.73c.23-.34.15-.77-.22-1.03-3.53-2.42-9.12-3.4-15.47,5.87-4.58,6.69-4.56,12.34.04,15.5s7.88.88,13.22-5.03c5.35-5.99,6.26-6.33,7.79-5.28,1.28.88,2.6,2.62-.73,7.48-2.92,4.27-5.01,5.3-8.39,3.95-.32-.14-.7-.02-.89.27l-1.89,2.76c-.1.14-.16.35-.09.56.04.19.15.39.36.45,5.34,3.07,9.97,1.31,14.61-5.46Z"/>
  <path class="cls-1" d="m292.01,117.49c.86-.22,1.71-.46,2.56-.71.2.56.41,1.11.62,1.67,3.45,8.86,8.59,14.45,13.51,14.2,4.73-.26,9.02-5.96,11.5-14.6.25-.85.47-1.72.66-2.57.57.11,1.16.21,1.74.3,9.4,1.43,16.82-.22,19.05-4.62,2.14-4.22-.67-10.8-6.9-17.25-.62-.64-1.24-1.26-1.9-1.88.69-.78,1.34-1.58,1.94-2.35,5.43-6.96,7.97-14.05,5.4-18.01s-10.66-4.73-19.55-2.5c-.72.19-1.43.37-2.15.59-.31-.91-.64-1.8-1.01-2.7-3.34-8.17-8.15-13.24-12.87-12.99-4.87.25-9.46,6.21-11.96,15.04-.2.7-.38,1.42-.55,2.16-.94-.19-1.89-.34-2.84-.47-8.74-1.19-15.55.45-17.69,4.65-2.21,4.34.65,11.29,7.04,17.87.49.5,1.01,1.01,1.54,1.51-.34.39-.66.78-.99,1.18-5.94,7.41-8.8,15.01-6.1,19.17,2.58,3.97,10.24,4.48,18.96,2.31h0Zm24.95-.37c-2.12,7.41-5.59,12.02-8.44,12.17-3.04.16-7.22-4.42-10.21-12.08-.2-.51-.39-1-.55-1.51,3.34-1.23,6.59-2.67,9.72-4.33,3.29,1.33,6.66,2.46,10.1,3.34-.2.82-.4,1.6-.62,2.4Zm-3.12-38.05c-1.41-.71-2.83-1.41-4.27-2.05,2.19-1.1,4.43-2.09,6.72-2.96.65,2.26,1.19,4.68,1.64,7.22-1.35-.76-2.71-1.5-4.09-2.21h0Zm14.2,13.2c-1.62,1.64-3.4,3.28-5.32,4.9-.01-1.54-.05-3.09-.14-4.64-.08-1.53-.19-3.08-.35-4.62,2.09,1.42,4.03,2.88,5.8,4.36h0Zm-9.45-6.7c.31,2.37.51,4.75.64,7.14s.16,4.78.11,7.17c-1.87,1.42-3.83,2.8-5.87,4.12s-4.12,2.56-6.16,3.68c-2.19-.93-4.34-1.93-6.47-3.01s-4.22-2.23-6.28-3.45c-.29-2.38-.51-4.77-.64-7.18-.13-2.39-.17-4.77-.14-7.17,1.86-1.41,3.85-2.79,5.91-4.13s4.09-2.56,6.1-3.69c2.22.93,4.4,1.93,6.54,3.02s4.22,2.26,6.27,3.5h0Zm-28.03,8.64c.08,1.59.21,3.16.35,4.74-2.07-1.36-4.05-2.81-5.98-4.37,1.73-1.78,3.56-3.46,5.48-5.04,0,1.56.07,3.12.14,4.67h0Zm4.61,11.25c1.36.75,2.74,1.5,4.13,2.2,1.36.7,2.75,1.37,4.15,2-2.28,1.11-4.53,2.06-6.7,2.85-.65-2.33-1.17-4.68-1.58-7.06Zm23.08,5.99c-2.35-.6-4.66-1.33-6.92-2.18,2.67-1.56,5.28-3.26,7.8-5.06-.19,2.52-.49,4.96-.88,7.23Zm20.42-1.82c-1.37,2.71-7.45,4.05-15.56,2.82-.51-.08-1.05-.18-1.59-.27.61-3.51.97-7.06,1.11-10.61,2.79-2.18,5.43-4.55,7.93-7.07.6.56,1.19,1.15,1.78,1.73,5.35,5.55,7.63,10.86,6.34,13.39h0Zm-19.19-36.64c.65-.2,1.3-.38,1.96-.54,3.36-.93,7.44-1.6,10.91-1.26,1.92.06,3.73.9,5.01,2.32,1.56,2.4-.6,8.15-5.23,14.11-.58.75-1.18,1.48-1.8,2.19-2.74-2.27-5.62-4.36-8.62-6.26-.52-3.56-1.27-7.09-2.23-10.56Zm-23.62-2.94c.88-3.38,2.36-6.58,4.39-9.42,1-1.64,2.64-2.79,4.52-3.17,2.87-.15,6.73,3.92,9.59,10.91.33.83.65,1.66.93,2.5-3.34,1.27-6.59,2.76-9.74,4.49-3.32-1.33-6.74-2.44-10.2-3.33.16-.68.32-1.34.5-1.98h0Zm-1.15,5.27c2.27.58,4.65,1.31,7.06,2.18-1.29.76-2.61,1.58-3.92,2.43s-2.66,1.76-3.93,2.68c.13-2.45.4-4.87.79-7.29Zm-19.69,7.17c-.92-1.68-1.1-3.68-.5-5.51,1.3-2.56,6.77-3.87,14.23-2.86.86.12,1.74.27,2.64.43-.57,3.52-.9,7.06-.98,10.61-2.84,2.2-5.53,4.59-8.05,7.17-.48-.45-.95-.91-1.39-1.37-2.48-2.42-4.5-5.3-5.96-8.48h0Zm6.75,15.64c.29-.36.58-.71.89-1.06,2.77,2.26,5.71,4.32,8.77,6.2.48,3.49,1.2,6.93,2.13,10.33-.81.25-1.6.46-2.37.66-7.47,1.86-13.78,1.52-15.33-.86-1.67-2.57.76-8.85,5.9-15.26Zm20.9-10.76c-3.32,2.15-4.26,6.58-2.11,9.9,2.15,3.32,6.58,4.26,9.9,2.11s4.26-6.58,2.11-9.9c-2.15-3.32-6.58-4.26-9.9-2.11h0Z"/>
  <g>
    <path class="cls-1" d="m842.58,225.27l-28.77,28.59-5.3-5.33,11.42-11.35-27.8-27.97,5.71-5.68,27.8,27.97,11.63-11.56,5.3,5.33Zm47.45-47.17l-5.3-5.33,23.1-22.96-8.52-8.57-18.6,18.49-5.26-5.29,18.6-18.49-8.77-8.82-23.1,22.96-5.26-5.29,28.77-28.59,33.1,33.3-28.85,28.68.08-.08Zm-14.4,14.32l7.47-7.43-59.94-6.71-7.52,7.47,30.01,3.31,3.09,29.99,7.52-7.47-2.28-21.61,21.6,2.41.04.04Zm-31.35-16.17l8.37.86-2.69-25.46-7.47,7.43,1.79,17.17Z"/>
    <path class="cls-1" d="m885.49,116.41l59.98,6.58,7.14-7.1-33.1-33.3-5.71,5.68,26.01,26.16-47.09-5.21-7.22,7.18Zm-105.91,105.61c.42-.42.92-.58,1.47-.62s1.13.21,1.55.63.63.88.62,1.47-.25,1.09-.67,1.51-.88.63-1.47.62c-.97.04-1.83-.61-2.05-1.56-.18-.71.01-1.47.51-2.01l.04-.04Zm4.24,23.75l-2.52,2.5-9.73-9.78c-.88-.88-1.5-1.85-1.75-2.85-.25-1.01-.2-2.07.13-3.06.34-1,.93-2.01,1.85-2.93.84-.83,1.72-1.38,2.64-1.79s1.93-.41,2.89-.2c.92.17,1.84.68,2.68,1.52l-2.52,2.5c-.38-.29-.79-.55-1.21-.63s-.92-.09-1.3.04c-.46.12-.84.42-1.22.79-.42.42-.67.84-.76,1.25-.12.47-.09.97.08,1.42.21.46.54.96,1.04,1.47l9.64,9.7.04.04Zm-16.77,9.08c.61.52,1.43.72,2.22.55.87-.21,1.66-.67,2.26-1.33.55-.54.92-1.09,1.18-1.59.21-.54.25-1.09.17-1.51-.08-.87-.7-1.59-1.54-1.8-.33-.08-.67-.09-1.05.04l-1.17.33-1.05.62-1.68,1c-.67.42-1.34.75-2.05,1.04-.67.29-1.37.49-2.1.58-1.48.15-2.95-.39-3.97-1.48-.83-.84-1.33-1.76-1.5-2.77-.19-1.12-.06-2.26.39-3.31.42-1.09,1.22-2.22,2.35-3.34s2.22-1.88,3.36-2.33c1.17-.5,2.26-.58,3.35-.41,1.16.23,2.22.8,3.05,1.64l-2.52,2.5c-.92-.86-2.27-1.05-3.39-.47-.59.25-1.17.67-1.68,1.17-.55.54-.97,1.13-1.22,1.71s-.34,1.17-.3,1.72c.07.51.3.98.67,1.34s.75.59,1.21.63c.5-.04.99-.14,1.47-.29l1.76-.92,2.01-1.17c1.47-.87,2.81-1.37,4.11-1.41,1.28-.07,2.53.44,3.39,1.39.76.75,1.25,1.74,1.37,2.81.2,1.1.08,2.23-.34,3.26-.51,1.17-1.18,2.17-2.19,3.18s-2.01,1.67-3.1,2.08c-1.09.42-2.18.5-3.22.37-1-.17-1.88-.63-2.72-1.47l2.44-2.42.04.04Z"/>
  </g>
  <path class="cls-1" d="m456.77,585.32c5.2,15.17,1.27,26.98-11.78,35.44-19.58,12.69-31.55-.4-42.93,3.49-7.59,2.6-11.71,8.75-12.37,18.45-5.2-15.16-1.27-26.98,11.78-35.44,19.58-12.69,31.55.41,42.92-3.49,7.59-2.6,11.71-8.75,12.38-18.45h0Zm5.45-45.24c5.2,15.17,1.27,26.98-11.78,35.44-19.58,12.69-31.55-.41-42.93,3.5-7.59,2.59-11.71,8.75-12.37,18.45-5.2-15.17-1.27-26.98,11.78-35.44,19.58-12.69,31.55.4,42.93-3.5,7.58-2.6,11.71-8.75,12.37-18.45Z"/>
  <path class="cls-1" d="m544.84,52l-4.6-11.43-41.29,26.76-2.92-7.43,41.26-26.75-4.55-11.42-41.29,26.76-5.19-13.07,13.09-16.29,18-3.86,2.23,5.63,10.15-6.58-5.48-13.71-29.76,6.35-21.59,26.94,8.23,20.68,1.65,4.15,10.6,26.61s51.47-33.36,51.47-33.36Z"/>
  <path class="cls-1" d="m981.27,366.39l-38.08-58.74-60.4,39.15,38.08,58.74,60.4-39.15Zm-62.57-24.5c-3.71-5.72-1.95-10.56,3.08-13.82,4.54-2.95,8.65-2.37,11.79-.48l-2.87,5.71c-1.88-.96-3.53-1.73-5.49-.46s-2.59,2.68-.79,5.45l12.16,18.76-5.68,3.68-12.21-18.84h0Zm-18.83.38c5.27-3.42,10.26-3.19,14-1.07l-2.94,5.59c-2.46-1.14-4.98-1.54-7.77.27-2.35,1.52-3.12,3.64-2.09,5.23,1.22,1.89,3.19,1.56,6.52.99l1.8-.33c5.2-.97,9.29-.58,12.21,3.91,2.69,4.14,1.48,9.4-3.58,12.67-3.61,2.34-6.99,2.8-10.93.81l2.64-5.62c2.07,1.06,3.55,1.05,5.18,0s2.05-2.78,1.18-4.12c-1.07-1.65-2.56-1.64-5.67-1.09l-1.8.33c-6.13,1.12-10.17.82-13.16-3.79-3.21-4.96-.96-10.29,4.42-13.77h0Z"/>
  <path class="cls-1" d="m56.13,62.31c3.97-3,6.42-6.53,4.51-11l-2.46-5.76-6.81,2.91c-5.29,2.26-11.66-.32-13.84-5.44l-6.55-15.35c-1.79-4.2-6.87-6.14-11.08-4.34l-14.63,6.24C1.1,31.35.21,36.01.74,40.58c.65,5.46,2.39,10.24,6.55,15.35,2.77,3.39,6.65,6.23,11.08,4.34l5.85-2.5-6.55-15.33,1.95-.83,9.83,23.02c1.91,4.47,5.73,4.79,11.06,4.35,5.5-.45,10.1-2.49,15.61-6.66h0Zm-38.67-9.59c.68,1.6-.07,3.45-1.68,4.13s-3.48-.04-4.16-1.64.09-3.45,1.7-4.14c1.63-.68,3.48.06,4.15,1.64Zm15.14-26.58l6.55,15.35c1.82,4.27,6.8,6.17,11.08,4.34l14.64-6.25c4.17-1.78,5.79-6.62,4.71-11.08-1.35-5.51-3.78-11.08-6.57-15.34-3.92-6-6.83-6.16-11.27-4.26l-5.85,2.5,6.56,15.36-1.95.83-9.02-21.12C39.59,1.99,35.23-.77,29.61.19c-6.45,1.09-10.12,2.59-15.61,6.66-4.07,3.03-6.21,7.02-4.3,11.49l2.25,5.27,7.01-2.99c5.07-2.17,11.41.31,13.64,5.53h0Zm20.08-9.71c-.68-1.6.07-3.45,1.68-4.13,1.63-.68,3.48.04,4.16,1.64s-.09,3.45-1.7,4.14-3.47-.05-4.15-1.64Z"/>
  <path class="cls-1" d="m726.71,97.49l-10.89,12.3,11.11,21.07,23.63-15.31,4.88,6.24-24.8,16.08,3.56,6.92,32.63-21.15-14.54-18.43-22.48,14.57-4.71-8.91,5.98-6.65,8.51-2.74,3.97,5.12,6.53-4.23-7.69-9.8-15.67,4.92m56.68,30.74l-51.76,33.55-29.6-55.89,17.4-19.62,25.02-7.88s38.93,49.84,38.93,49.84Z"/>
  <path class="cls-1" d="m792.55,493.04c.78-.51,1.46-1.23,1.88-2.04l13.46-26.4c.86-1.71.76-3.78-.29-5.4l-16.09-24.83c-1.05-1.62-2.89-2.56-4.81-2.47l-7.74.42c-3.61.45-4.56,1.02-5.83,1.85-4.05,2.63-4.8,6.6-2.02,10.89l15.89,24.51c.23.35.7.45,1.05.22l2.69-1.74c.38-.24.48-.72.25-1.07l-15.89-24.51c-1.24-1.91-.49-5.07,3.7-5.52l8.13-.46c.3.01.56.17.71.4l16.09,24.83c.17.26.2.57.08.81l-13.48,26.37c-.1.23-.39.42-.64.41l-29.57,1.54c-.28.02-.54-.14-.71-.4l-16.09-24.83c-.15-.23-.18-.54-.08-.81l13.48-26.37c.1-.23.39-.42.67-.43l7.58-.23c.29-.06.54-.18.63-.36.97-1.86,1.15-2.22,2.28-3.58.27-.34.69-.9-.8-.79l-9.93.4c-.96.05-1.84.33-2.65.86s-1.43,1.22-1.86,2.07l-13.48,26.37c-.86,1.71-.76,3.78.29,5.4l16.09,24.83c1.05,1.62,2.89,2.56,4.81,2.47l29.59-1.51c.91-.06,1.82-.36,2.63-.88m-17.32-14.04c6.13-3.98,8.14-8.93,5.33-13.27-3.02-4.66-7.55-3.66-13.83-.41-7.48,3.86-8.71,3.18-9.61,1.79-1.56-2.4-.27-4.67,4.24-7.6,5.73-3.71,7.86-3.08,10.14-.53.25.25.66.31.97.11l2.78-1.8c.35-.23.44-.65.2-1.03-2.33-3.59-7.11-6.65-16.54-.54-6.8,4.41-8.96,9.63-5.92,14.32s6.93,3.85,14.14.45c7.25-3.46,8.21-3.43,9.23-1.87.84,1.3,1.39,3.41-3.56,6.62-4.34,2.81-6.67,2.97-9.26.42-.25-.25-.64-.29-.93-.1l-2.81,1.82c-.14.09-.28.26-.3.48-.04.19-.01.42.16.56,3.74,4.89,8.7,5.05,15.58.58Z"/>
  <path class="cls-1" d="m895.01,560.78c5.97,4.09,7.49,12.24,3.4,18.21l-12.7,18.54c-4.09,5.97-12.24,7.49-18.21,3.4-3.78-2.59-5.78-6.81-5.69-11.07-3.94,1.62-8.6,1.28-12.38-1.31-5.97-4.09-7.49-12.24-3.4-18.21l.16-.23c1.92-2.8,4.73-4.62,7.78-5.34l-9.96-6.82c-6.05-4.14-7.52-12.45-3.4-18.46,4.08-5.95,12.26-7.56,18.25-3.46,3.78,2.59,5.78,6.81,5.69,11.07,3.94-1.61,8.6-1.28,12.38,1.31s5.78,6.81,5.69,11.07c3.94-1.62,8.6-1.28,12.38,1.31Zm-23.34,10.9l5.14-7.5c2.75-4.01,1.72-9.49-2.29-12.24-4-2.74-9.45-1.73-12.21,2.24-.01.02-.02.03-.03.05l-5.14,7.5,14.53,9.95Zm-9.69-1.44c-4.01-2.75-9.49-1.72-12.24,2.29l-.16.23c-2.75,4.01-1.72,9.49,2.29,12.24s9.49,1.72,12.24-2.29l.16-.23c2.75-4.01,1.72-9.49-2.29-12.24Zm-3.24-18.44s.02-.03.03-.05c2.71-4.01,1.68-9.46-2.32-12.2s-9.52-1.68-12.28,2.35-1.78,9.72,2.29,12.5l7.15,4.9,5.14-7.5Zm36.14,24.75c2.75-4.01,1.72-9.49-2.29-12.24-4.01-2.75-9.49-1.72-12.24,2.29l-5.14,7.5,14.53,9.95,5.14-7.5Zm-22.09,1.09l-5.14,7.5c-2.75,4.01-1.72,9.49,2.29,12.24,4.01,2.75,9.49,1.72,12.24-2.29l5.14-7.5-14.53-9.95Z"/>
  <path class="cls-1" d="m227.53,716.32c-1.99,6.95-9.24,10.98-16.2,8.98l-21.6-6.19c-6.95-1.99-10.98-9.24-8.98-16.2,1.26-4.4,4.63-7.63,8.7-8.9-2.78-3.23-3.93-7.75-2.67-12.16,1.99-6.95,9.24-10.98,16.2-8.98l.27.08c3.26.93,5.88,3.02,7.53,5.7l3.32-11.6c2.02-7.05,9.43-11.07,16.44-9.06,6.94,1.99,11.05,9.25,9.05,16.22-1.26,4.4-4.63,7.63-8.7,8.9,2.78,3.23,3.93,7.75,2.67,12.16s-4.63,7.63-8.7,8.9c2.78,3.23,3.93,7.75,2.67,12.16Zm-17.72-18.7l8.74,2.5c4.68,1.34,9.55-1.37,10.89-6.04s-1.34-9.51-5.99-10.88c-.02,0-.04-.01-.05-.02l-8.74-2.5-4.85,16.93Zm-1.7-9.65c1.34-4.68-1.37-9.55-6.04-10.89l-.27-.08c-4.68-1.34-9.55,1.37-10.89,6.04s1.37,9.55,6.04,10.89l.27.08c4.68,1.34,9.55-1.37,10.89-6.04Zm16.47-8.91s.04.01.05.02c4.66,1.3,9.5-1.4,10.84-6.06s-1.42-9.57-6.11-10.91-9.78,1.38-11.14,6.12l-2.39,8.33,8.74,2.5Zm-12.06,42.11c4.68,1.34,9.55-1.37,10.89-6.04s-1.37-9.55-6.04-10.89l-8.74-2.5-4.85,16.93,8.74,2.5Zm-8.01-20.62l-8.74-2.5c-4.68-1.34-9.55,1.37-10.89,6.04-1.34,4.68,1.37,9.55,6.04,10.89l8.74,2.5,4.85-16.93Z"/>
  <path class="cls-1" d="m1034.01,476.47l5.29,28.16-8.26,1.52c-1.98-2.38-5.44-3.09-8.28-1.73l-16.01-10.97c.21-2.41-.88-4.85-3.02-6.31-3.19-2.19-7.55-1.37-9.74,1.82s-1.37,7.55,1.82,9.74c2.14,1.46,4.81,1.6,6.98.53l14.04,9.62-10.14,1.85c-.29-.5-.79-.84-1.31-1.19-3.19-2.19-7.55-1.37-9.74,1.82s-1.37,7.55,1.82,9.74,7.55,1.37,9.74-1.82c.36-.52.69-1.01.79-1.58l12.51-2.34c2.26,2.64,6.12,3.2,9.04,1.31,1.31-.93,2.32-2.15,2.79-3.52l8.25-1.57.69,3.83c.74,3.82-1.75,7.46-5.58,8.15l-38.9,7.27c-3.82.74-7.46-1.75-8.15-5.58l-7.27-38.9c-.74-3.82,1.75-7.46,5.58-8.15l38.9-7.27c3.82-.74,7.46,1.75,8.15,5.58Z"/>
  <path class="cls-1" d="m616.75,519.31l-16.23,23.62-6.9-4.78c.29-3.08-1.65-6.04-4.62-7.09l-3.52-19.08c1.85-1.55,2.81-4.05,2.34-6.59-.7-3.8-4.36-6.32-8.16-5.62-3.8.7-6.32,4.36-5.62,8.16.47,2.55,2.26,4.53,4.54,5.32l3.09,16.74-8.46-5.88c.15-.56.04-1.15-.08-1.77-.7-3.8-4.36-6.32-8.16-5.62s-6.32,4.36-5.62,8.16,4.36,6.32,8.16,5.62c.62-.11,1.21-.22,1.68-.56l10.49,7.22c-.28,3.46,2.05,6.6,5.45,7.33,1.58.28,3.16.13,4.47-.5l6.93,4.74-2.23,3.19c-2.18,3.22-6.52,4.02-9.71,1.79l-32.6-22.44c-3.22-2.18-4.02-6.52-1.79-9.71l22.44-32.6c2.18-3.22,6.52-4.02,9.71-1.79l32.6,22.44c3.22,2.18,4.02,6.52,1.79,9.71Z"/>
  <g>
    <g>
      <path class="cls-1" d="m1251.64,1109.9l39.85,7.57-1.4,7.39-15.82-3.01-7.36,38.74-7.91-1.5,7.36-38.74-16.11-3.06,1.4-7.39Zm-65.73-12.49l-1.4,7.39-31.99-6.08-2.26,11.87,25.77,4.9-1.39,7.33-25.77-4.9-2.32,12.22,31.99,6.08-1.39,7.33-39.85-7.57,8.77-46.13,39.96,7.6-.12-.02Zm19.95,3.79l-10.35-1.97,28.33,53.24,10.41,1.98-14.22-26.63,22.99-19.5-10.41-1.98-16.54,14.09-10.22-19.18v-.06Zm4.39,35.01l-4.02-7.39-19.49,16.61,10.35,1.97,13.15-11.18Z"/>
      <path class="cls-1" d="m1137.58,1136.01l-28.46-53.2-9.89-1.88-8.77,46.13,7.91,1.5,6.89-36.24,22.31,41.79,10.01,1.9Zm146.98,27.7c-.58-.11-1-.43-1.34-.86s-.46-1.05-.35-1.63.37-1.01.86-1.34,1.04-.4,1.62-.29,1.01.37,1.34.86c.58.77.53,1.85-.13,2.57-.49.55-1.22.82-1.94.72h-.06Zm17.2-16.93l3.49.66-2.58,13.55c-.23,1.22-.67,2.28-1.36,3.06-.69.78-1.59,1.34-2.6,1.62-1.02.29-2.18.37-3.46.13-1.16-.22-2.11-.64-2.97-1.17s-1.43-1.36-1.8-2.27c-.38-.86-.48-1.9-.26-3.06l3.49.66c-.03.48,0,.96.16,1.36s.45.81.76,1.05c.36.31.82.46,1.34.56.58.11,1.07.08,1.46-.08.46-.17.85-.47,1.13-.87.26-.43.49-.99.62-1.69l2.55-13.44v-.06Zm16.98,8.71c.08-.8-.22-1.59-.8-2.14-.66-.6-1.49-.99-2.38-1.12-.76-.14-1.42-.15-1.97-.07-.57.13-1.04.4-1.34.71-.67.56-.91,1.48-.62,2.29.12.32.31.6.62.84l.94.78,1.11.51,1.77.82c.72.32,1.38.68,2.02,1.11.62.39,1.18.86,1.66,1.4.96,1.14,1.34,2.66,1.03,4.11-.22,1.16-.7,2.1-1.44,2.8-.81.79-1.84,1.33-2.95,1.55-1.14.27-2.52.24-4.09-.05s-2.81-.77-3.82-1.45c-1.07-.69-1.76-1.54-2.23-2.53-.46-1.09-.59-2.29-.37-3.45l3.49.66c-.19,1.24.42,2.47,1.53,3.06.54.34,1.21.59,1.91.72.76.14,1.48.16,2.1.04s1.16-.38,1.58-.72c.38-.35.64-.8.73-1.31s.06-.95-.16-1.36c-.31-.39-.67-.74-1.07-1.05l-1.75-.94-2.1-1c-1.55-.72-2.72-1.54-3.49-2.59-.78-1.02-1.06-2.33-.77-3.58.19-1.06.73-2.01,1.54-2.72.8-.78,1.8-1.32,2.89-1.56,1.25-.24,2.46-.26,3.86,0s2.52.72,3.47,1.38c.96.66,1.64,1.52,2.13,2.45.43.92.54,1.91.32,3.07l-3.37-.64v-.06Z"/>
    </g>
    <path class="cls-1" d="m1144.58,701.49l-26.95,64.61,66.43,27.71,26.95-64.61-66.43-27.71Zm15.14,65.47c-2.62,6.29-7.62,7.57-13.15,5.27-5-2.08-6.84-5.8-7.06-9.46l6.33-.86c.28,2.1.57,3.89,2.72,4.79s3.68.62,4.95-2.42l8.61-20.64,6.24,2.6-8.64,20.72h0Zm10.95,15.32c-5.8-2.42-8.43-6.67-8.79-10.94l6.28-.73c.45,2.68,1.54,4.98,4.61,6.26,2.58,1.08,4.76.51,5.49-1.23.87-2.08-.52-3.52-2.87-5.94l-1.29-1.3c-3.73-3.74-5.73-7.33-3.67-12.28,1.9-4.56,6.92-6.53,12.48-4.21,3.97,1.66,6.26,4.19,6.84,8.56l-6.13,1c-.29-2.31-1.14-3.52-2.94-4.27s-3.45-.12-4.06,1.35c-.76,1.82.09,3.03,2.3,5.29l1.29,1.3c4.39,4.42,6.42,7.93,4.31,13-2.27,5.45-7.94,6.61-13.86,4.14h0Z"/>
    <path class="cls-1" d="m1521.15,685.98l16.3,2.04,11.11-21.07-25.99-10.84,2.39-7.56,27.28,11.38,3.7-6.84-35.89-14.97-6.99,22.41,24.73,10.31-4.69,8.92-8.87-1.17-7.07-5.48,1.98-6.17-7.18-2.99-3.73,11.88,12.92,10.15m-6.67-64.13l56.93,23.74-29.38,56-26.02-3.27-20.64-16.19s19.12-60.29,19.12-60.29Z"/>
    <path class="cls-1" d="m1503.33,1086.85c.53.71,1.08,1.41,1.63,2.1-.44.4-.88.8-1.31,1.2-6.88,6.56-10.1,13.44-7.99,17.9,2.04,4.28,8.94,6.07,17.88,5.08.88-.09,1.77-.22,2.63-.37.12.57.24,1.16.38,1.73,2.25,9.24,6.6,15.47,11.52,15.86,4.72.38,9.73-4.72,13.33-12.95.36-.82.69-1.63,1.01-2.47.98.34,1.97.64,2.91.9,8.51,2.37,16.02,2.02,18.71-1.86s.31-11.66-5.13-19.03c-.44-.59-.89-1.19-1.37-1.76.73-.64,1.42-1.28,2.11-1.96,6.28-6.2,9.14-12.58,7.12-16.85-2.08-4.4-9.34-6.39-18.46-5.34-.73.09-1.46.19-2.21.31-.18-.94-.41-1.88-.64-2.8-2.23-8.53-6.34-14.21-11.03-14.59-4.86-.4-10.19,4.9-13.85,13.31-.28.65-.55,1.31-.81,2-.49-.17-.98-.32-1.47-.46-9.11-2.68-17.23-2.42-20.05,1.65s-.25,11.17,5.08,18.41h0Zm9.84,22.94c-7.66.86-13.25-.6-14.47-3.17-1.31-2.75,1.34-8.36,7.28-14.04.39-.37.78-.74,1.18-1.08,2.41,2.62,4.98,5.08,7.7,7.35.02,3.55.26,7.09.75,10.61-.83.13-1.63.24-2.45.33Zm34-17.36c.12-1.57.22-3.15.27-4.73,1.85,1.61,3.62,3.3,5.29,5.09-1.85,1.46-3.88,2.88-6.05,4.27.19-1.54.36-3.08.48-4.62h0Zm-6.8,18.15c-2.13-.87-4.33-1.9-6.55-3.05,1.42-.6,2.84-1.23,4.24-1.89,1.39-.66,2.78-1.35,4.14-2.08-.52,2.47-1.13,4.82-1.82,7.02h0Zm2.6-11.29c-2.07,1.19-4.2,2.28-6.36,3.31-2.16,1.03-4.36,1.96-6.59,2.83-2.03-1.19-4.04-2.48-6.05-3.86s-3.93-2.83-5.75-4.3c.03-2.37.13-4.75.32-7.13s.46-4.76.8-7.12c2.09-1.18,4.22-2.28,6.4-3.32,2.16-1.03,4.35-1.97,6.58-2.86,2.01,1.18,4.05,2.5,6.07,3.89s3.93,2.81,5.73,4.23c-.01,2.41-.11,4.8-.31,7.2s-.48,4.76-.85,7.13h0Zm-18.65-22.63c-1.44.68-2.85,1.39-4.25,2.13.47-2.43,1.05-4.82,1.77-7.19,2.3.93,4.56,1.98,6.75,3.15-1.44.6-2.86,1.25-4.27,1.91h0Zm-8.65,8.55c-.18,1.55-.34,3.11-.47,4.66-.13,1.53-.22,3.06-.27,4.6-1.89-1.69-3.63-3.4-5.19-5.11,1.91-1.49,3.88-2.86,5.93-4.14Zm3.25,23.62c-.34-2.4-.54-4.82-.62-7.23,2.46,1.88,5.02,3.65,7.64,5.29-2.41.79-4.77,1.43-7.02,1.94Zm9.45,18.19c-3.03-.23-6.58-5.35-8.53-13.31-.13-.5-.23-1.04-.35-1.58,3.48-.77,6.9-1.78,10.23-3.01,3.08,1.75,6.27,3.29,9.56,4.64-.29.77-.61,1.54-.93,2.3-3.1,7.05-7.14,11.19-9.98,10.96h0Zm26.58-31.69c.43.53.84,1.06,1.25,1.6,2.14,2.75,4.31,6.27,5.32,9.61.68,1.8.59,3.79-.24,5.51-1.63,2.35-7.77,2.55-15.04.54-.91-.25-1.82-.53-2.71-.83,1.06-3.39,1.9-6.86,2.51-10.35,3.09-1.83,6.08-3.87,8.92-6.08Zm-6.27-22.96c3.46-.47,6.98-.32,10.38.48,1.9.31,3.59,1.38,4.65,2.97,1.22,2.6-1.07,7.72-6.44,13.02-.64.62-1.29,1.23-1.96,1.82-2.45-2.61-5.06-5.04-7.85-7.3-.03-3.58-.31-7.17-.8-10.7.69-.11,1.36-.21,2.02-.29h0Zm-5.31.94c.33,2.32.56,4.79.67,7.36-1.2-.9-2.45-1.81-3.74-2.7s-2.64-1.79-3.97-2.61c2.31-.81,4.66-1.49,7.04-2.05Zm-14.13-15.47c1.2-1.49,2.98-2.42,4.9-2.55,2.86.23,6.15,4.79,8.06,12.08.22.84.41,1.71.61,2.61-3.47.81-6.87,1.86-10.19,3.13-3.11-1.79-6.35-3.37-9.7-4.71.24-.62.48-1.22.74-1.81,1.29-3.21,3.19-6.17,5.57-8.74h0Zm-11.9,12.19c.44.13.88.27,1.32.42-1.04,3.42-1.83,6.92-2.4,10.46-3.05,1.77-5.95,3.75-8.74,5.9-.53-.66-1.03-1.31-1.51-1.94-4.56-6.2-6.65-12.16-5.03-14.5,1.74-2.52,8.48-2.67,16.35-.35Zm17.9,15.24c-3.25-2.25-7.71-1.44-9.96,1.81-2.25,3.25-1.44,7.71,1.81,9.96,3.25,2.25,7.71,1.44,9.96-1.81s1.44-7.71-1.81-9.96h0Z"/>
    <g>
      <path class="cls-1" d="m1356.46,674.4l-28.77,28.59-5.3-5.33,11.42-11.35-27.8-27.97,5.71-5.68,27.8,27.97,11.63-11.56,5.3,5.33Zm47.45-47.17l-5.3-5.33,23.1-22.96-8.52-8.57-18.6,18.49-5.26-5.29,18.6-18.49-8.77-8.82-23.1,22.96-5.26-5.29,28.77-28.59,33.1,33.3-28.85,28.68.08-.08Zm-14.4,14.32l7.47-7.43-59.94-6.71-7.52,7.47,30.01,3.31,3.09,29.99,7.52-7.47-2.28-21.61,21.6,2.41.04.04Zm-31.35-16.17l8.37.86-2.69-25.46-7.47,7.43,1.79,17.17Z"/>
      <path class="cls-1" d="m1399.36,565.54l59.98,6.58,7.14-7.1-33.1-33.3-5.71,5.68,26.01,26.16-47.09-5.21-7.22,7.18Zm-105.91,105.61c.42-.42.92-.58,1.47-.62s1.13.21,1.55.63.63.88.62,1.47-.25,1.09-.67,1.51-.88.63-1.47.62c-.97.04-1.83-.61-2.05-1.56-.18-.71.01-1.47.51-2.01l.04-.04Zm4.24,23.75l-2.52,2.5-9.73-9.78c-.88-.88-1.5-1.85-1.75-2.85-.25-1.01-.2-2.07.13-3.06.34-1,.93-2.01,1.85-2.93.84-.83,1.72-1.38,2.64-1.79s1.93-.41,2.89-.2c.92.17,1.84.68,2.68,1.52l-2.52,2.5c-.38-.29-.79-.55-1.21-.63s-.92-.09-1.3.04c-.46.12-.84.42-1.22.79-.42.42-.67.84-.76,1.25-.12.47-.09.97.08,1.42.21.46.54.96,1.04,1.47l9.64,9.7.04.04Zm-16.77,9.08c.61.52,1.43.72,2.22.55.87-.21,1.66-.67,2.26-1.33.55-.54.92-1.09,1.18-1.59.21-.54.25-1.09.17-1.51-.08-.87-.7-1.59-1.54-1.8-.33-.08-.67-.09-1.05.04l-1.17.33-1.05.62-1.68,1c-.67.42-1.34.75-2.05,1.04-.67.29-1.37.49-2.1.58-1.48.15-2.95-.39-3.97-1.48-.83-.84-1.33-1.76-1.5-2.77-.19-1.12-.06-2.26.39-3.31.42-1.09,1.22-2.22,2.35-3.34s2.22-1.88,3.36-2.33c1.17-.5,2.26-.58,3.35-.41,1.16.23,2.22.8,3.05,1.64l-2.52,2.5c-.92-.86-2.27-1.05-3.39-.47-.59.25-1.17.67-1.68,1.17-.55.54-.97,1.13-1.22,1.71s-.34,1.17-.3,1.72c.07.51.3.98.67,1.34s.75.59,1.21.63c.5-.04.99-.14,1.47-.29l1.76-.92,2.01-1.17c1.47-.87,2.81-1.37,4.11-1.41,1.28-.07,2.53.44,3.39,1.39.76.75,1.25,1.74,1.37,2.81.2,1.1.08,2.23-.34,3.26-.51,1.17-1.18,2.17-2.19,3.18s-2.01,1.67-3.1,2.08c-1.09.42-2.18.5-3.22.37-1-.17-1.88-.63-2.72-1.47l2.44-2.42.04.04Z"/>
    </g>
    <path class="cls-1" d="m1495.15,815.52l-38.08-58.74-60.4,39.15,38.08,58.74,60.4-39.15Zm-62.57-24.5c-3.71-5.72-1.95-10.56,3.08-13.82,4.54-2.95,8.65-2.37,11.79-.48l-2.87,5.71c-1.88-.96-3.53-1.73-5.49-.46s-2.59,2.68-.79,5.45l12.16,18.76-5.68,3.68-12.21-18.84h0Zm-18.83.38c5.27-3.42,10.26-3.19,14-1.07l-2.94,5.59c-2.46-1.14-4.98-1.54-7.77.27-2.35,1.52-3.12,3.64-2.09,5.23,1.22,1.89,3.19,1.56,6.52.99l1.8-.33c5.2-.97,9.29-.58,12.21,3.91,2.69,4.14,1.48,9.4-3.58,12.67-3.61,2.34-6.99,2.8-10.93.81l2.64-5.62c2.07,1.06,3.55,1.05,5.18,0s2.05-2.78,1.18-4.12c-1.07-1.65-2.56-1.64-5.67-1.09l-1.8.33c-6.13,1.12-10.17.82-13.16-3.79-3.21-4.96-.96-10.29,4.42-13.77h0Z"/>
    <path class="cls-1" d="m1306.42,942.17c.78-.51,1.46-1.23,1.88-2.04l13.46-26.4c.86-1.71.76-3.78-.29-5.4l-16.09-24.83c-1.05-1.62-2.89-2.56-4.81-2.47l-7.74.42c-3.61.45-4.56,1.02-5.83,1.85-4.05,2.63-4.8,6.6-2.02,10.89l15.89,24.51c.23.35.7.45,1.05.22l2.69-1.74c.38-.24.48-.72.25-1.07l-15.89-24.51c-1.24-1.91-.49-5.07,3.7-5.52l8.13-.46c.3.01.56.17.71.4l16.09,24.83c.17.26.2.57.08.81l-13.48,26.37c-.1.23-.39.42-.64.41l-29.57,1.54c-.28.02-.54-.14-.71-.4l-16.09-24.83c-.15-.23-.18-.54-.08-.81l13.48-26.37c.1-.23.39-.42.67-.43l7.58-.23c.29-.06.54-.18.63-.36.97-1.86,1.15-2.22,2.28-3.58.27-.34.69-.9-.8-.79l-9.93.4c-.96.05-1.84.33-2.65.86s-1.43,1.22-1.86,2.07l-13.48,26.37c-.86,1.71-.76,3.78.29,5.4l16.09,24.83c1.05,1.62,2.89,2.56,4.81,2.47l29.59-1.51c.91-.06,1.82-.36,2.63-.88m-17.32-14.04c6.13-3.98,8.14-8.93,5.33-13.27-3.02-4.66-7.55-3.66-13.83-.41-7.48,3.86-8.71,3.18-9.61,1.79-1.56-2.4-.27-4.67,4.24-7.6,5.73-3.71,7.86-3.08,10.14-.53.25.25.66.31.97.11l2.78-1.8c.35-.23.44-.65.2-1.03-2.33-3.59-7.11-6.65-16.54-.54-6.8,4.41-8.96,9.63-5.92,14.32s6.93,3.85,14.14.45c7.25-3.46,8.21-3.43,9.23-1.87.84,1.3,1.39,3.41-3.56,6.62-4.34,2.81-6.67,2.97-9.26.42-.25-.25-.64-.29-.93-.1l-2.81,1.82c-.14.09-.28.26-.3.48-.04.19-.01.42.16.56,3.74,4.89,8.7,5.05,15.58.58Z"/>
    <path class="cls-1" d="m1408.88,1009.92c5.97,4.09,7.49,12.24,3.4,18.21l-12.7,18.54c-4.09,5.97-12.24,7.49-18.21,3.4-3.78-2.59-5.78-6.81-5.69-11.07-3.94,1.62-8.6,1.28-12.38-1.31-5.97-4.09-7.49-12.24-3.4-18.21l.16-.23c1.92-2.8,4.73-4.62,7.78-5.34l-9.96-6.82c-6.05-4.14-7.52-12.45-3.4-18.46,4.08-5.95,12.26-7.56,18.25-3.46,3.78,2.59,5.78,6.81,5.69,11.07,3.94-1.61,8.6-1.28,12.38,1.31s5.78,6.81,5.69,11.07c3.94-1.62,8.6-1.28,12.38,1.31Zm-23.34,10.9l5.14-7.5c2.75-4.01,1.72-9.49-2.29-12.24-4-2.74-9.45-1.73-12.21,2.24-.01.02-.02.03-.03.05l-5.14,7.5,14.53,9.95Zm-9.69-1.44c-4.01-2.75-9.49-1.72-12.24,2.29l-.16.23c-2.75,4.01-1.72,9.49,2.29,12.24s9.49,1.72,12.24-2.29l.16-.23c2.75-4.01,1.72-9.49-2.29-12.24Zm-3.24-18.44s.02-.03.03-.05c2.71-4.01,1.68-9.46-2.32-12.2-4-2.74-9.52-1.68-12.28,2.35s-1.78,9.72,2.29,12.5l7.15,4.9,5.14-7.5Zm36.14,24.75c2.75-4.01,1.72-9.49-2.29-12.24-4.01-2.75-9.49-1.72-12.24,2.29l-5.14,7.5,14.53,9.95,5.14-7.5Zm-22.09,1.09l-5.14,7.5c-2.75,4.01-1.72,9.49,2.29,12.24,4.01,2.75,9.49,1.72,12.24-2.29l5.14-7.5-14.53-9.95Z"/>
    <path class="cls-1" d="m1547.88,925.6l5.29,28.16-8.26,1.52c-1.98-2.38-5.44-3.09-8.28-1.73l-16.01-10.97c.21-2.41-.88-4.85-3.02-6.31-3.19-2.19-7.55-1.37-9.74,1.82s-1.37,7.55,1.82,9.74c2.14,1.46,4.81,1.6,6.98.53l14.04,9.62-10.14,1.85c-.29-.5-.79-.84-1.31-1.19-3.19-2.19-7.55-1.37-9.74,1.82s-1.37,7.55,1.82,9.74c3.19,2.19,7.55,1.37,9.74-1.82.36-.52.69-1.01.79-1.58l12.51-2.34c2.26,2.64,6.12,3.2,9.04,1.31,1.31-.93,2.32-2.15,2.79-3.52l8.25-1.57.69,3.83c.74,3.82-1.75,7.46-5.58,8.15l-38.9,7.27c-3.82.74-7.46-1.75-8.15-5.58l-7.27-38.9c-.74-3.82,1.75-7.46,5.58-8.15l38.9-7.27c3.82-.74,7.46,1.75,8.15,5.58Z"/>
    <path class="cls-1" d="m1130.62,968.44l-16.23,23.62-6.9-4.78c.29-3.08-1.65-6.04-4.62-7.09l-3.52-19.08c1.85-1.55,2.81-4.05,2.34-6.59-.7-3.8-4.36-6.32-8.16-5.62s-6.32,4.36-5.62,8.16c.47,2.55,2.26,4.53,4.54,5.32l3.09,16.74-8.46-5.88c.15-.56.04-1.15-.08-1.77-.7-3.8-4.36-6.32-8.16-5.62-3.8.7-6.32,4.36-5.62,8.16s4.36,6.32,8.16,5.62c.62-.11,1.21-.22,1.68-.56l10.49,7.22c-.28,3.46,2.05,6.6,5.45,7.33,1.58.28,3.16.13,4.47-.5l6.93,4.74-2.23,3.19c-2.18,3.22-6.52,4.02-9.71,1.79l-32.6-22.44c-3.22-2.18-4.02-6.52-1.79-9.71l22.44-32.6c2.18-3.22,6.52-4.02,9.71-1.79l32.6,22.44c3.22,2.18,4.02,6.52,1.79,9.71Z"/>
  </g>
  <g>
    <g>
      <path class="cls-1" d="m1442.05,462.99l39.69-8.35,1.55,7.36-15.76,3.31,8.12,38.59-7.88,1.66-8.12-38.59-16.05,3.38-1.55-7.36Zm-65.48,13.77l1.55,7.36-31.87,6.7,2.49,11.82,25.67-5.4,1.54,7.3-25.67,5.4,2.56,12.17,31.87-6.7,1.54,7.3-39.69,8.35-9.66-45.95,39.81-8.37-.12.02Zm19.87-4.18l-10.31,2.17,46.64,38.23,10.37-2.18-23.38-19.1,13.72-26.84-10.37,2.18-9.84,19.37-16.81-13.77v-.06Zm17.5,30.62l-6.56-5.28-11.6,22.83,10.31-2.17,7.84-15.38Z"/>
      <path class="cls-1" d="m1346.84,531l-46.75-38.15-9.85,2.07,9.66,45.95,7.88-1.66-7.59-36.1,36.68,29.98,9.97-2.1Zm146.31-31.01c-.58.12-1.09-.01-1.57-.27s-.83-.79-.95-1.37-.05-1.08.27-1.57.81-.77,1.38-.9,1.08-.05,1.57.27c.83.49,1.2,1.51.87,2.42-.24.69-.81,1.22-1.52,1.41h-.06Zm9.36-22.23l3.48-.73,2.84,13.5c.26,1.22.26,2.37-.08,3.35-.34.98-.96,1.85-1.78,2.49-.83.66-1.87,1.18-3.14,1.45-1.16.24-2.19.22-3.19.07s-1.84-.7-2.53-1.4c-.68-.64-1.18-1.57-1.42-2.73l3.48-.73c.16.45.37.89.67,1.19s.73.57,1.11.67c.45.15.93.11,1.45,0,.58-.12,1.02-.34,1.32-.64.36-.33.6-.76.71-1.24.08-.5.07-1.1-.08-1.8l-2.82-13.38v-.06Zm19,1.51c-.24-.77-.81-1.38-1.56-1.67-.84-.3-1.76-.34-2.63-.11-.75.16-1.37.41-1.85.69-.47.34-.81.77-.96,1.17-.4.77-.27,1.71.31,2.35.23.25.52.44.9.54l1.16.36,1.22.05,1.95.07c.79.02,1.53.1,2.29.24.72.12,1.42.34,2.07.65,1.33.68,2.26,1.94,2.53,3.4.24,1.16.16,2.2-.25,3.14-.45,1.04-1.18,1.93-2.12,2.56-.95.68-2.23,1.19-3.79,1.52s-2.89.37-4.09.13c-1.26-.22-2.21-.74-3.03-1.48-.85-.82-1.43-1.88-1.67-3.04l3.48-.73c.3,1.22,1.34,2.12,2.59,2.24.63.11,1.35.08,2.04-.07.75-.16,1.42-.42,1.95-.77s.92-.8,1.18-1.28c.22-.46.28-.99.17-1.49s-.31-.9-.67-1.19c-.44-.24-.91-.42-1.39-.56l-1.98-.19-2.32-.12c-1.71-.06-3.1-.38-4.21-1.05-1.11-.64-1.88-1.74-2.09-3.01-.23-1.05-.1-2.14.38-3.1.43-1.03,1.15-1.91,2.07-2.55,1.06-.71,2.17-1.18,3.56-1.48s2.6-.3,3.74-.06c1.14.24,2.1.77,2.91,1.45.75.69,1.23,1.56,1.48,2.71l-3.36.71v-.06Z"/>
    </g>
    <path class="cls-1" d="m1518.55,189.77v70h71.98v-70h-71.98Zm39.17,54.59c0,6.81-4.11,9.92-10.11,9.92-5.41,0-8.55-2.72-10.15-6.02l5.51-3.23c1.06,1.83,2.02,3.38,4.35,3.38s3.63-.84,3.63-4.14v-22.36h6.76v22.45h0Zm16,9.92c-6.28,0-10.35-2.91-12.32-6.72l5.51-3.09c1.45,2.3,3.34,4,6.67,4,2.8,0,4.6-1.36,4.6-3.25,0-2.25-1.83-3.05-4.93-4.38l-1.69-.7c-4.88-2.02-8.11-4.56-8.11-9.92,0-4.94,3.87-8.69,9.9-8.69,4.31,0,7.39,1.45,9.61,5.27l-5.27,3.28c-1.16-2.02-2.41-2.81-4.35-2.81s-3.23,1.22-3.23,2.81c0,1.97,1.25,2.77,4.16,4l1.69.7c5.75,2.39,8.98,4.84,8.98,10.34,0,5.91-4.79,9.16-11.2,9.16h0Z"/>
    <path class="cls-1" d="m1274.12,371.14c-1.2-4.83-3.48-8.47-8.34-8.47h-6.27v7.41c0,5.75-4.87,10.59-10.44,10.59h-16.69c-4.56,0-8.34,3.91-8.34,8.48v15.91c0,4.53,3.94,7.19,8.34,8.48,5.28,1.55,10.36,1.83,16.69,0,4.2-1.22,8.34-3.67,8.34-8.48v-6.36h-16.67v-2.12h25.03c4.86,0,6.66-3.39,8.34-8.47,1.75-5.23,1.67-10.27,0-16.97h0Zm-24,31.8c1.73,0,3.14,1.42,3.14,3.17s-1.41,3.19-3.14,3.19-3.14-1.44-3.14-3.19c.02-1.77,1.42-3.17,3.14-3.17Zm-18.5-24.36h16.69c4.64,0,8.34-3.83,8.34-8.48v-15.92c0-4.53-3.81-7.92-8.34-8.69-5.59-.92-11.67-.87-16.69.02-7.06,1.25-8.34,3.86-8.34,8.69v6.36h16.7v2.12h-22.97c-4.86,0-9.11,2.92-10.44,8.47-1.53,6.36-1.59,10.33,0,16.97,1.19,4.94,4.02,8.47,8.87,8.47h5.73v-7.62c0-5.52,4.77-10.37,10.44-10.37h0Zm-1.05-22.28c-1.73,0-3.14-1.42-3.14-3.17.02-1.77,1.41-3.19,3.14-3.19s3.14,1.44,3.14,3.19-1.41,3.17-3.14,3.17Z"/>
    <path class="cls-1" d="m1741.55,280.09l-1.38-16.37-22.91-6.51-5.23,27.67-7.89-.78,5.49-29.04-7.46-2.2-7.22,38.21,23.37,2.2,4.98-26.33,9.69,2.74.69,8.92-3.9,8.05-6.44-.66-1.44,7.64,12.4,1.2,7.26-14.74m-61.36,19.79l11.46-60.6,60.87,17.17,2.18,26.14-11.57,23.54s-62.94-6.24-62.94-6.24Z"/>
    <path class="cls-1" d="m1622.7,414.04c-.93,0-1.9.24-2.69.69l-25.66,14.83c-1.66.97-2.69,2.76-2.69,4.69v29.59c0,1.93,1.03,3.72,2.69,4.69l6.72,3.86c3.28,1.59,4.38,1.62,5.9,1.62,4.83,0,7.62-2.93,7.62-8.03v-29.21c0-.41-.34-.76-.76-.76h-3.21c-.45,0-.79.34-.79.76v29.21c0,2.28-2.34,4.52-6.1,2.62l-7.07-4.03c-.24-.17-.38-.45-.38-.72v-29.59c0-.31.14-.59.38-.72l25.66-14.79c.21-.14.55-.14.76,0l25.66,14.79c.24.14.38.41.38.72v29.59c0,.28-.14.55-.38.72l-25.66,14.79c-.21.14-.55.14-.79,0l-6.48-3.93c-.28-.1-.55-.14-.72-.03-1.83,1.03-2.17,1.24-3.86,1.76-.41.14-1.07.38.24,1.1l8.55,5.07c.83.48,1.72.72,2.69.72s1.86-.24,2.69-.72l25.66-14.79c1.66-.97,2.69-2.76,2.69-4.69v-29.59c0-1.93-1.03-3.72-2.69-4.69l-25.66-14.83c-.79-.45-1.72-.69-2.69-.69m6.9,21.21c-7.31,0-11.69,3.07-11.69,8.24,0,5.55,4.34,7.17,11.38,7.86,8.38.83,9.03,2.07,9.03,3.72,0,2.86-2.31,4.07-7.69,4.07-6.83,0-8.28-1.69-8.79-5.07-.07-.34-.38-.62-.76-.62h-3.31c-.41,0-.72.31-.72.76,0,4.28,2.34,9.45,13.59,9.45,8.1,0,12.76-3.21,12.76-8.79s-3.72-7-11.62-8.07c-7.97-1.03-8.76-1.59-8.76-3.45,0-1.55.69-3.62,6.59-3.62,5.17,0,7.21,1.14,8,4.69.07.34.38.59.72.59h3.34c.17,0,.38-.07.52-.24.14-.14.24-.34.17-.55-.48-6.14-4.55-8.97-12.76-8.97Z"/>
    <path class="cls-1" d="m1167.6,128.13c-.67-.58-1.35-1.15-2.03-1.71.35-.48.69-.96,1.03-1.45,5.36-7.85,7.07-15.25,4.08-19.17-2.88-3.76-10.01-4.08-18.55-1.23-.84.27-1.68.58-2.49.91-.23-.54-.48-1.08-.73-1.61-4.13-8.56-9.68-13.76-14.58-13.11-4.69.62-8.53,6.65-10.34,15.45-.18.87-.34,1.74-.47,2.63-1.03-.13-2.06-.22-3.04-.27-8.81-.54-16.09,1.36-17.91,5.72s2.12,11.47,8.99,17.54c.56.49,1.12.97,1.7,1.44-.58.78-1.12,1.55-1.66,2.36-4.85,7.37-6.32,14.21-3.45,17.96,2.96,3.87,10.46,4.3,19.17,1.37.69-.24,1.39-.49,2.1-.77.38.88.79,1.75,1.22,2.61,3.96,7.88,9.16,12.57,13.83,11.97,4.83-.63,8.95-6.92,10.77-15.91.13-.69.26-1.4.38-2.13.52.06,1.02.1,1.53.15,9.47.72,17.36-1.23,19.26-5.8s-2.09-10.98-8.81-16.95h0Zm-14.4-20.38c7.31-2.43,13.08-2.18,14.81.08,1.85,2.42.43,8.46-4.19,15.25-.31.45-.6.88-.93,1.3-2.9-2.06-5.93-3.93-9.07-5.58-.76-3.46-1.73-6.88-2.95-10.22.78-.3,1.54-.58,2.33-.84Zm-29.63,24.07c.21,1.56.44,3.13.72,4.69-2.15-1.18-4.23-2.48-6.24-3.87,1.5-1.81,3.19-3.63,5.03-5.44.13,1.55.29,3.08.49,4.62h0Zm2.87-19.17c2.27.4,4.63.95,7.04,1.62-1.26.88-2.52,1.79-3.75,2.74-1.22.93-2.43,1.9-3.61,2.9-.01-2.53.1-4.95.31-7.25h0Zm-.19,11.58c1.78-1.59,3.63-3.11,5.53-4.57s3.85-2.83,5.86-4.14c2.23.74,4.47,1.58,6.72,2.52s4.43,1.95,6.52,3.01c.47,2.33.86,4.68,1.18,7.04s.54,4.75.7,7.13c-1.8,1.59-3.65,3.12-5.57,4.58-1.9,1.46-3.84,2.83-5.84,4.17-2.21-.74-4.48-1.6-6.74-2.54s-4.43-1.93-6.49-2.94c-.49-2.35-.89-4.72-1.2-7.1s-.52-4.75-.66-7.15h0Zm22.96,18.24c1.26-.96,2.49-1.96,3.71-2.97.05,2.48-.03,4.93-.23,7.4-2.45-.43-4.87-.98-7.26-1.67,1.28-.89,2.54-1.82,3.77-2.76h0Zm6.68-10.17c-.15-1.55-.31-3.11-.52-4.65-.2-1.52-.43-3.04-.69-4.55,2.2,1.26,4.26,2.57,6.14,3.91-1.55,1.86-3.2,3.61-4.93,5.29Zm-8.1-22.42c.83,2.28,1.53,4.6,2.12,6.94-2.8-1.32-5.67-2.52-8.58-3.58,2.19-1.27,4.37-2.39,6.46-3.36Zm-13.04-15.82c3.01-.4,7.55,3.86,11.12,11.24.23.47.44.96.67,1.47-3.24,1.48-6.37,3.18-9.38,5.08-3.38-1.07-6.82-1.91-10.32-2.54.12-.81.27-1.63.43-2.45,1.56-7.54,4.64-12.44,7.47-12.8h0Zm-19.39,36.54c-.53-.43-1.05-.86-1.55-1.31-2.67-2.25-5.52-5.23-7.21-8.29-1.04-1.62-1.37-3.58-.91-5.44,1.1-2.64,7.06-4.11,14.6-3.66.94.05,1.89.14,2.83.25-.32,3.54-.42,7.1-.29,10.64-2.64,2.44-5.14,5.05-7.46,7.81Zm10.92,21.14c-3.29,1.19-6.76,1.77-10.26,1.7-1.92.1-3.8-.6-5.17-1.94-1.74-2.28-.57-7.77,3.59-14.08.5-.74,1.01-1.48,1.54-2.19,2.94,2.04,6,3.87,9.2,5.5.78,3.49,1.79,6.94,3.02,10.3-.65.25-1.29.49-1.92.71h0Zm4.99-2.03c-.81-2.2-1.55-4.57-2.19-7.06,1.36.64,2.78,1.26,4.22,1.86s2.95,1.2,4.43,1.73c-2.09,1.28-4.25,2.43-6.46,3.47Zm17.04,12.19c-.86,1.71-2.41,2.99-4.26,3.52-2.85.37-7.01-3.4-10.4-10.13-.39-.77-.76-1.59-1.14-2.42,3.22-1.52,6.33-3.25,9.31-5.19,3.42,1.1,6.91,1.97,10.47,2.59-.1.65-.22,1.3-.34,1.92-.59,3.41-1.83,6.7-3.63,9.71h0Zm9.09-14.41c-.46-.04-.92-.08-1.38-.14.3-3.56.34-7.15.16-10.73,2.61-2.36,5.04-4.91,7.32-7.6.66.53,1.28,1.06,1.88,1.58,5.76,5.11,9.04,10.51,7.95,13.13-1.18,2.83-7.73,4.38-15.92,3.75Zm-20.68-11.17c3.65,1.52,7.84-.2,9.36-3.85s-.2-7.84-3.85-9.36-7.84.2-9.36,3.85.2,7.84,3.85,9.36h0Z"/>
    <g>
      <path class="cls-1" d="m1787.96,120.91l39.85,7.57-1.4,7.39-15.82-3.01-7.36,38.74-7.91-1.5,7.36-38.74-16.11-3.06,1.4-7.39Zm-65.73-12.49l-1.4,7.39-31.99-6.08-2.26,11.87,25.77,4.9-1.39,7.33-25.77-4.9-2.32,12.22,31.99,6.08-1.39,7.33-39.85-7.57,8.77-46.13,39.96,7.6-.12-.02Zm19.95,3.79l-10.35-1.97,28.33,53.24,10.41,1.98-14.22-26.63,22.99-19.5-10.41-1.98-16.54,14.09-10.22-19.18v-.06Zm4.39,35.01l-4.02-7.39-19.49,16.61,10.35,1.97,13.15-11.18Z"/>
      <path class="cls-1" d="m1673.9,147.02l-28.46-53.2-9.89-1.88-8.77,46.13,7.91,1.5,6.89-36.24,22.31,41.79,10.01,1.9Zm146.98,27.7c-.58-.11-1-.43-1.34-.86s-.46-1.05-.35-1.63.37-1.01.86-1.34,1.04-.4,1.62-.29,1.01.37,1.34.86c.58.77.53,1.85-.13,2.57-.49.55-1.22.82-1.94.72h-.06Zm17.2-16.93l3.49.66-2.58,13.55c-.23,1.22-.67,2.28-1.36,3.06-.69.78-1.59,1.34-2.6,1.62-1.02.29-2.18.37-3.46.13-1.16-.22-2.11-.64-2.97-1.17s-1.43-1.36-1.8-2.27c-.38-.86-.48-1.9-.26-3.06l3.49.66c-.03.48,0,.96.16,1.36s.45.81.76,1.05c.36.31.82.46,1.34.56.58.11,1.07.08,1.46-.08.46-.17.85-.47,1.13-.87.26-.43.49-.99.62-1.69l2.55-13.44v-.06Zm16.98,8.71c.08-.8-.22-1.59-.8-2.14-.66-.6-1.49-.99-2.38-1.12-.76-.14-1.42-.15-1.97-.07-.57.13-1.04.4-1.34.71-.67.56-.91,1.48-.62,2.29.12.32.31.6.62.84l.94.78,1.11.51,1.77.82c.72.32,1.38.68,2.02,1.11.62.39,1.18.86,1.66,1.4.96,1.14,1.34,2.66,1.03,4.11-.22,1.16-.7,2.1-1.44,2.8-.81.79-1.84,1.33-2.95,1.55-1.14.27-2.52.24-4.09-.05s-2.81-.77-3.82-1.45c-1.07-.69-1.76-1.54-2.23-2.53-.46-1.09-.59-2.29-.37-3.45l3.49.66c-.19,1.24.42,2.47,1.53,3.06.54.34,1.21.59,1.91.72.76.14,1.48.16,2.1.04s1.16-.38,1.58-.72c.38-.35.64-.8.73-1.31s.06-.95-.16-1.36c-.31-.39-.67-.74-1.07-1.05l-1.75-.94-2.1-1c-1.55-.72-2.72-1.54-3.49-2.59-.78-1.02-1.06-2.33-.77-3.58.19-1.06.73-2.01,1.54-2.72.8-.78,1.8-1.32,2.89-1.56,1.25-.24,2.46-.26,3.86,0s2.52.72,3.47,1.38c.96.66,1.64,1.52,2.13,2.45.43.92.54,1.91.32,3.07l-3.37-.64v-.06Z"/>
    </g>
    <path class="cls-1" d="m1478.77,328.29c9.58-12.86,21.55-16.3,35.9-10.31,21.54,8.98,17.5,26.26,27.14,33.44,6.43,4.79,13.84,4.71,22.21-.22-9.57,12.86-21.54,16.3-35.9,10.31-21.54-8.98-17.49-26.26-27.14-33.44-6.43-4.8-13.84-4.72-22.22.21h0Zm-40.4,21.07c9.57-12.86,21.55-16.3,35.9-10.31,21.54,8.98,17.49,26.26,27.15,33.44,6.42,4.79,13.83,4.72,22.21-.22-9.58,12.86-21.55,16.3-35.9,10.31-21.54-8.98-17.5-26.26-27.15-33.44-6.43-4.79-13.84-4.71-22.21.22Z"/>
    <path class="cls-1" d="m1081.06,471.17l-6.83,10.26,45.41,18.94-4.48,6.6-45.38-18.93-6.85,10.21,45.41,18.94-7.85,11.67-20.84-1.59-13.35-12.67,3.39-5.02-11.16-4.66-8.22,12.27,22.05,20.97,34.42,2.59,12.41-18.48,2.49-3.71,15.96-23.79s-56.61-23.61-56.61-23.61Z"/>
    <path class="cls-1" d="m1362.69,241.22c-.86-.36-1.84-.51-2.75-.4l-29.39,3.81c-1.9.25-3.54,1.51-4.29,3.29l-11.39,27.31c-.74,1.78-.48,3.84.68,5.36l4.72,6.15c2.41,2.72,3.42,3.18,4.82,3.77,4.46,1.86,8.16.23,10.13-4.48l11.24-26.96c.16-.38-.03-.83-.41-.99l-2.96-1.23c-.41-.17-.86.01-1.02.39l-11.24,26.96c-.88,2.1-3.9,3.27-6.64.07l-4.97-6.44c-.16-.25-.18-.56-.07-.81l11.39-27.31c.12-.29.35-.49.63-.52l29.37-3.78c.24-.05.56.09.7.29l17.98,23.53c.17.22.19.53.07.81l-11.39,27.31c-.11.25-.34.46-.63.52l-29.37,3.78c-.24.05-.56-.09-.73-.31l-4.47-6.12c-.21-.2-.46-.34-.66-.31-2.08.25-2.48.31-4.24.14-.44-.03-1.13-.06-.2,1.11l5.94,7.97c.58.76,1.31,1.33,2.2,1.7s1.81.49,2.76.37l29.37-3.78c1.9-.25,3.54-1.51,4.29-3.29l11.39-27.31c.74-1.78.48-3.84-.68-5.36l-17.97-23.56c-.56-.72-1.33-1.3-2.22-1.67m-1.8,22.23c-6.75-2.81-11.97-1.67-13.96,3.11-2.14,5.12,1.25,8.29,7.48,11.64,7.42,3.99,7.54,5.39,6.9,6.91-1.1,2.64-3.7,2.87-8.66.8-6.3-2.63-6.99-4.75-6.16-8.06.07-.34-.11-.72-.46-.86l-3.06-1.27c-.38-.16-.79,0-.96.42-1.65,3.95-1.47,9.62,8.9,13.95,7.48,3.12,13.01,1.95,15.16-3.2,2.14-5.12-.74-7.89-7.62-11.92-6.95-4.02-7.47-4.84-6.76-6.55.6-1.43,2.03-3.08,7.47-.81,4.77,1.99,6.21,3.82,5.58,7.41-.07.34.12.69.44.82l3.09,1.29c.16.07.38.08.57-.02.18-.07.36-.23.37-.44,1.92-5.85-.75-10.03-8.32-13.19Z"/>
    <path class="cls-1" d="m1790.68,533.78l.96-12.28-48.88,5.62.69-7.95,48.85-5.62,1-12.25-48.88,5.62,1.16-14.02,18.96-8.78,17.83,4.55-.51,6.04,12.01-1.38,1.19-14.72-29.48-7.54-31.31,14.53-1.82,22.19-.36,4.45-2.33,28.55s60.93-7.01,60.93-7.01Z"/>
    <path class="cls-1" d="m1927.06,480.96l-57.75-39.56-40.68,59.39,57.75,39.56,40.68-59.39Zm-67.18,1.47c-5.62-3.85-5.86-9-2.47-13.94,3.06-4.47,7.07-5.52,10.7-4.98l-.45,6.37c-2.11-.16-3.93-.24-5.24,1.69s-1.36,3.47,1.36,5.34l18.45,12.64-3.82,5.58-18.52-12.69h0Zm-17.23,7.6c3.55-5.18,8.24-6.89,12.51-6.37l-.56,6.3c-2.71-.1-5.19.5-7.07,3.24-1.58,2.31-1.48,4.56.08,5.63,1.86,1.27,3.55.21,6.4-1.6l1.53-.99c4.42-2.89,8.35-4.12,12.77-1.09,4.07,2.79,4.98,8.1,1.57,13.07-2.43,3.55-5.38,5.28-9.77,4.95l.27-6.2c2.32.18,3.68-.4,4.78-2s.82-3.35-.5-4.25c-1.62-1.11-2.99-.53-5.65,1.17l-1.53.99c-5.22,3.39-9.07,4.67-13.61,1.56-4.87-3.34-4.85-9.12-1.23-14.41h0Z"/>
    <path class="cls-1" d="m1072.55,387.74l14.28,8.11,18.32-15.23-19.87-19.95,5.1-6.07,20.86,20.94,6.03-4.91-27.44-27.55-15.02,18.04,18.91,18.98-7.74,6.45-7.75-4.47-4.44-7.76,4.19-4.94-5.49-5.51-7.99,9.55,8.06,14.32m18.35-61.81l43.53,43.7-48.56,40.52-22.8-12.97-12.88-22.85s40.71-48.4,40.71-48.4Z"/>
    <path class="cls-1" d="m1506.97,45.46c5.2,15.17,1.27,26.98-11.78,35.44-19.58,12.69-31.55-.4-42.93,3.49-7.59,2.6-11.71,8.75-12.37,18.45-5.2-15.16-1.27-26.98,11.78-35.44,19.58-12.69,31.55.41,42.92-3.49,7.59-2.6,11.71-8.75,12.38-18.45h0Zm5.45-45.24c5.2,15.17,1.27,26.98-11.78,35.44-19.58,12.69-31.55-.41-42.93,3.5-7.59,2.59-11.71,8.75-12.37,18.45-5.2-15.17-1.27-26.98,11.78-35.44,19.58-12.69,31.55.4,42.93-3.5,7.58-2.6,11.71-8.75,12.37-18.45Z"/>
    <path class="cls-1" d="m1277.72,176.46c-1.99,6.95-9.24,10.98-16.2,8.98l-21.6-6.19c-6.95-1.99-10.98-9.24-8.98-16.2,1.26-4.4,4.63-7.63,8.7-8.9-2.78-3.23-3.93-7.75-2.67-12.16,1.99-6.95,9.24-10.98,16.2-8.98l.27.08c3.26.93,5.88,3.02,7.53,5.7l3.32-11.6c2.02-7.05,9.43-11.07,16.44-9.06,6.94,1.99,11.05,9.25,9.05,16.22-1.26,4.4-4.63,7.63-8.7,8.9,2.78,3.23,3.93,7.75,2.67,12.16-1.26,4.4-4.63,7.63-8.7,8.9,2.78,3.23,3.93,7.75,2.67,12.16Zm-17.72-18.7l8.74,2.5c4.68,1.34,9.55-1.37,10.89-6.04s-1.34-9.51-5.99-10.88c-.02,0-.04-.01-.05-.02l-8.74-2.5-4.85,16.93Zm-1.7-9.65c1.34-4.68-1.37-9.55-6.04-10.89l-.27-.08c-4.68-1.34-9.55,1.37-10.89,6.04s1.37,9.55,6.04,10.89l.27.08c4.68,1.34,9.55-1.37,10.89-6.04Zm16.47-8.91s.04.01.05.02c4.66,1.3,9.5-1.4,10.84-6.06s-1.42-9.57-6.11-10.91-9.78,1.38-11.14,6.12l-2.39,8.33,8.74,2.5Zm-12.06,42.11c4.68,1.34,9.55-1.37,10.89-6.04s-1.37-9.55-6.04-10.89l-8.74-2.5-4.85,16.93,8.74,2.5Zm-8.01-20.62l-8.74-2.5c-4.68-1.34-9.55,1.37-10.89,6.04-1.34,4.68,1.37,9.55,6.04,10.89l8.74,2.5,4.85-16.93Z"/>
  </g>
  <path class="cls-1" d="m1859.72,964.29c.29-.84.55-1.68.81-2.53.58.14,1.15.27,1.73.4,9.3,1.97,16.79.74,19.28-3.52,2.38-4.1-.04-10.81-5.92-17.62-.57-.67-1.18-1.33-1.79-1.96.41-.42.82-.86,1.21-1.29,6.35-7.08,9.04-14.19,6.57-18.47-2.36-4.1-9.4-5.36-18.22-3.68-.88.17-1.74.35-2.61.57-.28-1-.58-1.99-.91-2.91-2.85-8.36-7.38-14.36-12.1-14.39s-9.8,6.33-12.81,14.99c-.24.7-.48,1.4-.68,2.12-.94-.24-1.86-.45-2.81-.64-8.66-1.68-15.54-.43-17.92,3.65-2.46,4.21,0,11.31,6.02,18.25.48.55.98,1.1,1.51,1.65-.68.68-1.32,1.4-1.95,2.12-5.78,6.66-8.14,13.26-5.8,17.35,2.42,4.23,9.8,5.64,18.81,3.9.69-.14,1.39-.29,2.11-.46.14.5.29.99.45,1.47,2.94,9.03,7.74,15.58,12.69,15.61s9.36-6.11,12.32-14.6h0Zm13.37-21.08c5.03,5.84,6.99,11.27,5.56,13.73-1.53,2.63-7.66,3.62-15.7,1.93-.53-.11-1.05-.22-1.56-.37.8-3.46,1.38-6.98,1.71-10.51,2.92-2.02,5.71-4.22,8.33-6.62.58.61,1.12,1.21,1.66,1.84Zm-33.54-18.24c-1.36.79-2.73,1.6-4.06,2.45.28-2.44.68-4.86,1.21-7.24,2.25.7,4.57,1.57,6.94,2.58-1.38.71-2.74,1.44-4.09,2.21h0Zm18.82-4.64c.49,2.25.88,4.64,1.18,7.13-1.29-.83-2.62-1.65-3.96-2.42-1.32-.77-2.68-1.53-4.05-2.24,2.33-.97,4.62-1.79,6.82-2.47h0Zm-10.79,4.23c2.15,1.04,4.26,2.18,6.33,3.37s4.08,2.49,6.06,3.84c.16,2.34.24,4.74.23,7.17s-.12,4.84-.3,7.17c-1.97,1.32-4,2.57-6.06,3.77s-4.18,2.31-6.33,3.36c-2.15-1.06-4.27-2.19-6.36-3.41-2.07-1.2-4.08-2.47-6.08-3.81-.16-2.33-.23-4.75-.22-7.2s.1-4.83.25-7.12c1.99-1.35,4.03-2.62,6.11-3.81s4.2-2.29,6.36-3.33h0Zm-8.13,28.18c1.37.8,2.76,1.56,4.16,2.3-2.27.99-4.57,1.85-6.93,2.61-.54-2.42-.95-4.88-1.22-7.35,1.31.85,2.65,1.65,3.99,2.44h0Zm11.94,2.31c1.38-.73,2.76-1.47,4.1-2.25,1.33-.76,2.65-1.55,3.95-2.37-.32,2.51-.76,4.92-1.28,7.17-2.31-.73-4.55-1.58-6.77-2.55Zm17.65-16.02c-1.79,1.63-3.67,3.17-5.62,4.6.16-3.09.17-6.2.04-9.3,2.01,1.54,3.88,3.13,5.57,4.7Zm9.66-18.08c1.52,2.63-.7,8.45-6.16,14.56-.35.39-.72.78-1.1,1.18-2.6-2.43-5.37-4.68-8.26-6.74-.3-3.53-.83-7.03-1.57-10.51.8-.2,1.61-.37,2.42-.54,7.57-1.43,13.27-.44,14.68,2.04h0Zm-41.17-4.02c.19-.66.4-1.29.62-1.93,1.06-3.32,2.74-7.1,4.92-9.82,1.1-1.57,2.79-2.63,4.69-2.92,2.86.01,6.49,4.97,8.94,12.1.31.89.59,1.8.85,2.71-3.4,1.05-6.73,2.31-9.96,3.78-3.26-1.52-6.63-2.83-10.06-3.92Zm-15.4,18.14c-2.35-2.59-4.21-5.58-5.47-8.84-.82-1.74-.89-3.74-.18-5.52,1.45-2.48,6.97-3.48,14.38-2.04.87.18,1.75.37,2.61.59-.77,3.5-1.3,7.02-1.58,10.6-2.93,2.05-5.74,4.3-8.38,6.71-.48-.5-.95-1-1.38-1.51h0Zm3.78,3.85c1.73-1.59,3.64-3.17,5.69-4.71-.07,1.5-.11,3.05-.12,4.61s.02,3.19.09,4.75c-1.98-1.45-3.86-3-5.67-4.65Zm-4.78,20.4c-1.91-.15-3.68-1.1-4.88-2.6-1.43-2.49.47-7.78,5.41-13.47.57-.65,1.18-1.31,1.81-1.98,2.63,2.4,5.42,4.62,8.34,6.63.28,3.58.81,7.14,1.59,10.66-.64.15-1.28.29-1.91.41-3.38.75-6.89.86-10.36.34h0Zm16.78,2.92c-.14-.44-.28-.88-.4-1.33,3.41-1.08,6.75-2.41,9.99-3.94,3.18,1.52,6.46,2.8,9.81,3.87-.24.81-.49,1.59-.75,2.34-2.53,7.27-6.28,12.36-9.12,12.35-3.06-.01-6.99-5.49-9.53-13.29Zm2.45-23.38c-.02,3.95,3.17,7.17,7.12,7.19s7.17-3.17,7.19-7.12-3.17-7.17-7.12-7.19-7.17,3.17-7.19,7.12h0Z"/>
  <path class="cls-1" d="m1772.03,797.19l-10.67,6.15,32.26,37.15-6.95,3.92-32.24-37.13-10.67,6.1,32.26,37.15-12.22,6.97-17.96-10.69-6.33-17.28,5.27-2.99-7.93-9.13-12.81,7.34,10.43,28.58,29.69,17.62,19.33-11.03,3.88-2.22,24.87-14.21s-40.21-46.31-40.21-46.31Z"/>
  <path class="cls-1" d="m1975.05,763.25l-26.95,64.61,66.43,27.71,26.95-64.61-66.43-27.71Zm15.14,65.47c-2.62,6.29-7.62,7.57-13.15,5.27-5-2.08-6.84-5.8-7.06-9.46l6.33-.86c.28,2.1.57,3.89,2.72,4.79s3.68.62,4.95-2.42l8.61-20.64,6.24,2.6-8.64,20.72h0Zm10.95,15.32c-5.8-2.42-8.43-6.67-8.79-10.94l6.28-.73c.45,2.68,1.54,4.98,4.61,6.26,2.58,1.08,4.76.51,5.49-1.23.87-2.08-.52-3.52-2.87-5.94l-1.29-1.3c-3.73-3.74-5.73-7.33-3.67-12.28,1.9-4.56,6.92-6.53,12.48-4.21,3.97,1.66,6.26,4.19,6.84,8.56l-6.13,1c-.29-2.31-1.14-3.52-2.94-4.27s-3.45-.12-4.06,1.35c-.76,1.82.09,3.03,2.3,5.29l1.29,1.3c4.39,4.42,6.42,7.93,4.31,13-2.27,5.45-7.94,6.61-13.86,4.14h0Z"/>
  <path class="cls-1" d="m1566.32,722.64c0-7.23,5.86-13.1,13.1-13.1h22.47c7.23,0,13.1,5.86,13.1,13.1,0,4.58-2.35,8.61-5.91,10.95,3.56,2.34,5.91,6.37,5.91,10.95,0,7.23-5.86,13.1-13.1,13.1h-.28c-3.39,0-6.48-1.29-8.81-3.4v12.07c0,7.33-6.02,13.24-13.31,13.24s-13.17-5.85-13.17-13.1c0-4.58,2.35-8.61,5.91-10.95-3.56-2.34-5.91-6.37-5.91-10.95s2.35-8.61,5.91-10.95c-3.56-2.34-5.91-6.37-5.91-10.95Zm22.19,13.1h-9.09c-4.86,0-8.81,3.94-8.81,8.81s3.91,8.78,8.75,8.81c.02,0,.04,0,.06,0h9.09v-17.61Zm4.29,8.81c0,4.86,3.94,8.81,8.81,8.81h.28c4.86,0,8.81-3.94,8.81-8.81s-3.94-8.81-8.81-8.81h-.28c-4.86,0-8.81,3.94-8.81,8.81Zm-13.38,13.1s-.04,0-.06,0c-4.84.03-8.75,3.96-8.75,8.81s4,8.81,8.88,8.81,9.02-4.02,9.02-8.95v-8.66h-9.09Zm0-43.81c-4.86,0-8.81,3.94-8.81,8.81s3.94,8.81,8.81,8.81h9.09v-17.61h-9.09Zm13.38,17.61h9.09c4.86,0,8.81-3.94,8.81-8.81s-3.94-8.81-8.81-8.81h-9.09v17.61Z"/>
  <path class="cls-1" d="m1850.79,730.64l20.25-20.28,5.92,5.95c-.84,2.98.53,6.23,3.26,7.81v19.4c-2.1,1.19-3.5,3.47-3.5,6.06,0,3.87,3.14,7.01,7.01,7.01s7.01-3.14,7.01-7.01c0-2.59-1.4-4.87-3.5-6.06v-17.02l7.25,7.32c-.25.53-.25,1.12-.25,1.75,0,3.87,3.14,7.01,7.01,7.01s7.01-3.14,7.01-7.01-3.14-7.01-7.01-7.01c-.63,0-1.23,0-1.75.25l-9-9c.9-3.36-.82-6.86-4.03-8.2-1.51-.56-3.08-.7-4.48-.32l-5.95-5.92,2.77-2.73c2.73-2.77,7.15-2.77,9.88,0l27.99,27.99c2.77,2.73,2.77,7.15,0,9.88l-27.99,27.99c-2.73,2.77-7.15,2.77-9.88,0l-27.99-27.99c-2.77-2.73-2.77-7.15,0-9.88Z"/>
  <path class="cls-1" d="m1668.49,824.82l-.18,28.66-8.4-.08c-1.49-2.71-4.75-4.07-7.8-3.27l-13.62-13.82c.66-2.32.06-4.93-1.76-6.77-2.72-2.75-7.15-2.79-9.91-.07s-2.79,7.15-.07,9.91c1.82,1.85,4.42,2.48,6.75,1.86l11.95,12.12-10.3-.12c-.19-.55-.61-.97-1.06-1.42-2.72-2.75-7.15-2.79-9.91-.07s-2.79,7.15-.07,9.91,7.15,2.79,9.91.07c.45-.44.87-.86,1.07-1.4l12.73.09c1.72,3.02,5.4,4.31,8.62,3.01,1.47-.66,2.69-1.67,3.41-2.92l8.4.03-.05,3.89c0,3.89-3.15,6.99-7.03,6.93l-39.58-.28c-3.89,0-6.99-3.15-6.93-7.03l.28-39.58c0-3.89,3.15-6.99,7.03-6.93l39.58.28c3.89,0,6.99,3.15,6.93,7.03Z"/>
  <path class="cls-1" d="m1643.25,1031.32c4.66,1.74,8.96,1.91,11.7-2.1l3.54-5.17-6.11-4.19c-4.74-3.25-5.99-10.01-2.84-14.6l9.43-13.77c2.58-3.76,1.49-9.09-2.28-11.68l-13.12-8.99c-3.74-2.56-8.15-.81-11.71,2.09-4.26,3.48-7.36,7.51-9.43,13.77-1.37,4.16-1.69,8.96,2.28,11.68l5.25,3.59,9.42-13.75,1.75,1.2-14.14,20.65c-2.75,4.01-.96,7.41,2.27,11.67,3.33,4.4,7.52,7.18,14,9.59h0Zm-12.67-37.77c-.98,1.43-2.95,1.79-4.39.8s-1.84-2.96-.86-4.39,2.96-1.78,4.4-.79c1.45,1.01,1.81,2.97.84,4.38Zm30.55-1.5l-9.43,13.77c-2.62,3.83-1.56,9.05,2.28,11.68l13.14,9c3.74,2.56,8.69,1.33,11.88-1.97,3.92-4.09,7.32-9.13,9.42-13.78,2.96-6.53,1.53-9.06-2.45-11.79l-5.25-3.59-9.44,13.78-1.75-1.2,12.98-18.95c2.75-4.01,2.74-9.17-1.09-13.4-4.38-4.86-7.62-7.15-14-9.59-4.74-1.81-9.26-1.47-12,2.54l-3.24,4.73,6.29,4.31c4.55,3.12,5.87,9.79,2.66,14.47h0Zm18.97,11.73c.98-1.43,2.95-1.79,4.39-.8,1.45,1.01,1.84,2.96.86,4.39s-2.96,1.78-4.4.79-1.82-2.95-.84-4.38Z"/>
  <g>
    <path class="cls-1" d="m2186.92,736.16l-28.77,28.59-5.3-5.33,11.42-11.35-27.8-27.97,5.71-5.68,27.8,27.97,11.63-11.56,5.3,5.33Zm47.45-47.17l-5.3-5.33,23.1-22.96-8.52-8.57-18.6,18.49-5.26-5.29,18.6-18.49-8.77-8.82-23.1,22.96-5.26-5.29,28.77-28.59,33.1,33.3-28.85,28.68.08-.08Zm-14.4,14.32l7.47-7.43-59.94-6.71-7.52,7.47,30.01,3.31,3.09,29.99,7.52-7.47-2.28-21.61,21.6,2.41.04.04Zm-31.35-16.17l8.37.86-2.69-25.46-7.47,7.43,1.79,17.17Z"/>
    <path class="cls-1" d="m2229.83,627.3l59.98,6.58,7.14-7.1-33.1-33.3-5.71,5.68,26.01,26.16-47.09-5.21-7.22,7.18Zm-105.91,105.61c.42-.42.92-.58,1.47-.62s1.13.21,1.55.63.63.88.62,1.47-.25,1.09-.67,1.51-.88.63-1.47.62c-.97.04-1.83-.61-2.05-1.56-.18-.71.01-1.47.51-2.01l.04-.04Zm4.24,23.75l-2.52,2.5-9.73-9.78c-.88-.88-1.5-1.85-1.75-2.85-.25-1.01-.2-2.07.13-3.06.34-1,.93-2.01,1.85-2.93.84-.83,1.72-1.38,2.64-1.79s1.93-.41,2.89-.2c.92.17,1.84.68,2.68,1.52l-2.52,2.5c-.38-.29-.79-.55-1.21-.63s-.92-.09-1.3.04c-.46.12-.84.42-1.22.79-.42.42-.67.84-.76,1.25-.12.47-.09.97.08,1.42.21.46.54.96,1.04,1.47l9.64,9.7.04.04Zm-16.77,9.08c.61.52,1.43.72,2.22.55.87-.21,1.66-.67,2.26-1.33.55-.54.92-1.09,1.18-1.59.21-.54.25-1.09.17-1.51-.08-.87-.7-1.59-1.54-1.8-.33-.08-.67-.09-1.05.04l-1.17.33-1.05.62-1.68,1c-.67.42-1.34.75-2.05,1.04-.67.29-1.37.49-2.1.58-1.48.15-2.95-.39-3.97-1.48-.83-.84-1.33-1.76-1.5-2.77-.19-1.12-.06-2.26.39-3.31.42-1.09,1.22-2.22,2.35-3.34s2.22-1.88,3.36-2.33c1.17-.5,2.26-.58,3.35-.41,1.16.23,2.22.8,3.05,1.64l-2.52,2.5c-.92-.86-2.27-1.05-3.39-.47-.59.25-1.17.67-1.68,1.17-.55.54-.97,1.13-1.22,1.71s-.34,1.17-.3,1.72c.07.51.3.98.67,1.34s.75.59,1.21.63c.5-.04.99-.14,1.47-.29l1.76-.92,2.01-1.17c1.47-.87,2.81-1.37,4.11-1.41,1.28-.07,2.53.44,3.39,1.39.76.75,1.25,1.74,1.37,2.81.2,1.1.08,2.23-.34,3.26-.51,1.17-1.18,2.17-2.19,3.18s-2.01,1.67-3.1,2.08c-1.09.42-2.18.5-3.22.37-1-.17-1.88-.63-2.72-1.47l2.44-2.42.04.04Z"/>
  </g>
  <path class="cls-1" d="m1801.11,1096.22c5.2,15.17,1.27,26.98-11.78,35.44-19.58,12.69-31.55-.4-42.93,3.49-7.59,2.6-11.71,8.75-12.37,18.45-5.2-15.16-1.27-26.98,11.78-35.44,19.58-12.69,31.55.41,42.92-3.49,7.59-2.6,11.71-8.75,12.38-18.45h0Zm5.45-45.24c5.2,15.17,1.27,26.98-11.78,35.44-19.58,12.69-31.55-.41-42.93,3.5-7.59,2.59-11.71,8.75-12.37,18.45-5.2-15.17-1.27-26.98,11.78-35.44,19.58-12.69,31.55.4,42.93-3.5,7.58-2.6,11.71-8.75,12.37-18.45Z"/>
  <path class="cls-1" d="m2136.89,1003.93c.78-.51,1.46-1.23,1.88-2.04l13.46-26.4c.86-1.71.76-3.78-.29-5.4l-16.09-24.83c-1.05-1.62-2.89-2.56-4.81-2.47l-7.74.42c-3.61.45-4.56,1.02-5.83,1.85-4.05,2.63-4.8,6.6-2.02,10.89l15.89,24.51c.23.35.7.45,1.05.22l2.69-1.74c.38-.24.48-.72.25-1.07l-15.89-24.51c-1.24-1.91-.49-5.07,3.7-5.52l8.13-.46c.3.01.56.17.71.4l16.09,24.83c.17.26.2.57.08.81l-13.48,26.37c-.1.23-.39.42-.64.41l-29.57,1.54c-.28.02-.54-.14-.71-.4l-16.09-24.83c-.15-.23-.18-.54-.08-.81l13.48-26.37c.1-.23.39-.42.67-.43l7.58-.23c.29-.06.54-.18.63-.36.97-1.86,1.15-2.22,2.28-3.58.27-.34.69-.9-.8-.79l-9.93.4c-.96.05-1.84.33-2.65.86s-1.43,1.22-1.86,2.07l-13.48,26.37c-.86,1.71-.76,3.78.29,5.4l16.09,24.83c1.05,1.62,2.89,2.56,4.81,2.47l29.59-1.51c.91-.06,1.82-.36,2.63-.88m-17.32-14.04c6.13-3.98,8.14-8.93,5.33-13.27-3.02-4.66-7.55-3.66-13.83-.41-7.48,3.86-8.71,3.18-9.61,1.79-1.56-2.4-.27-4.67,4.24-7.6,5.73-3.71,7.86-3.08,10.14-.53.25.25.66.31.97.11l2.78-1.8c.35-.23.44-.65.2-1.03-2.33-3.59-7.11-6.65-16.54-.54-6.8,4.41-8.96,9.63-5.92,14.32s6.93,3.85,14.14.45c7.25-3.46,8.21-3.43,9.23-1.87.84,1.3,1.39,3.41-3.56,6.62-4.34,2.81-6.67,2.97-9.26.42-.25-.25-.64-.29-.93-.1l-2.81,1.82c-.14.09-.28.26-.3.48-.04.19-.01.42.16.56,3.74,4.89,8.7,5.05,15.58.58Z"/>
  <path class="cls-1" d="m1961.09,1030.2l-16.23,23.62-6.9-4.78c.29-3.08-1.65-6.04-4.62-7.09l-3.52-19.08c1.85-1.55,2.81-4.05,2.34-6.59-.7-3.8-4.36-6.32-8.16-5.62s-6.32,4.36-5.62,8.16c.47,2.55,2.26,4.53,4.54,5.32l3.09,16.74-8.46-5.88c.15-.56.04-1.15-.08-1.77-.7-3.8-4.36-6.32-8.16-5.62-3.8.7-6.32,4.36-5.62,8.16s4.36,6.32,8.16,5.62c.62-.11,1.21-.22,1.68-.56l10.49,7.22c-.28,3.46,2.05,6.6,5.45,7.33,1.58.28,3.16.13,4.47-.5l6.93,4.74-2.23,3.19c-2.18,3.22-6.52,4.02-9.71,1.79l-32.6-22.44c-3.22-2.18-4.02-6.52-1.79-9.71l22.44-32.6c2.18-3.22,6.52-4.02,9.71-1.79l32.6,22.44c3.22,2.18,4.02,6.52,1.79,9.71Z"/>
</svg>