<?xml version="1.0" encoding="UTF-8"?>
<svg id="Layer_1" data-name="Layer 1" xmlns="http://www.w3.org/2000/svg" viewBox="0 0 168 168">
  <defs>
    <style>
      .cls-1 {
        fill: #fff;
      }

      .cls-2 {
        fill: #f7931e;
      }

      .cls-3 {
        fill: none;
      }
    </style>
  </defs>
  <rect class="cls-3" width="168" height="168"/>
  <path class="cls-1" d="m79.2,29.01v109.99c0,2.45-1.99,4.44-4.44,4.44h-34.82l.88-.29c-.38.01-.77.02-1.15.02-.74,0-1.47-.02-2.2-.06C16.66,141.96.14,124.72.14,103.63s17.7-39.53,39.53-39.53h19.76V29.01c0-2.45,1.99-4.44,4.44-4.44h10.89c2.45,0,4.44,1.99,4.44,4.44Z"/>
  <path class="cls-2" d="m88.81,139V29.02c0-2.45,1.99-4.44,4.44-4.44h34.82s-.88.29-.88.29c.38-.01.77-.02,1.15-.02.74,0,1.47.02,2.2.06,20.81,1.14,37.33,18.37,37.33,39.47,0,21.83-17.7,39.53-39.53,39.53h-19.76s0,35.09,0,35.09c0,2.45-1.99,4.44-4.44,4.44h-10.89c-2.45,0-4.44-1.99-4.44-4.44Z"/>
</svg>